<?xml version="1.0" encoding="utf-8"?>
<!-- Generator: Adobe Illustrator 22.1.0, SVG Export Plug-In . SVG Version: 6.00 Build 0)  -->
<svg version="1.1" id="Layer_1" xmlns="http://www.w3.org/2000/svg" xmlns:xlink="http://www.w3.org/1999/xlink" x="0px" y="0px"
	 viewBox="0 0 309 33.5" style="enable-background:new 0 0 309 33.5;" xml:space="preserve">
<style type="text/css">
	.st0{opacity:0.15;}
	.st1{fill-rule:evenodd;clip-rule:evenodd;fill:#FFFFFF;}
	.st2{fill:#FFFFFF;}
	.st3{fill:#206095;}
	.st4{opacity:0.2;fill-rule:evenodd;clip-rule:evenodd;fill:#FFFFFF;}
	.st5{opacity:0.2;}
	.st6{opacity:0.2;fill:#FFFFFF;}
	.st7{opacity:0.2;fill-rule:evenodd;clip-rule:evenodd;fill:none;stroke:#FFFFFF;stroke-miterlimit:10;}
	.st8{fill:#D2376D;}
	.st9{fill:#002538;}
	.st10{fill:#86BC25;}
	.st11{opacity:0.5;}
	.st12{fill:#00A7A3;}
	.st13{fill:#E1BB23;}
	.st14{fill:#003C57;}
	.st15{fill:#00696F;}
	.st16{fill:#E2BC23;}
	.st17{fill:#003B56;}
	.st18{fill:#00A8A4;}
	.st19{fill:#F39638;}
	.st20{fill:#206196;}
	.st21{fill:#F3F2F3;}
	.st22{fill:#333133;}
	.st23{fill:#414042;}
	.st24{fill:#D0D2D3;}
	.st25{fill:#EAEAEA;}
	.st26{fill:none;stroke:#414042;stroke-linecap:round;stroke-linejoin:round;stroke-miterlimit:10;}
	.st27{fill:none;stroke:#EAEAEA;stroke-linecap:round;stroke-linejoin:round;stroke-miterlimit:10;}
	.st28{fill:none;stroke:#333133;stroke-linecap:round;stroke-linejoin:round;stroke-miterlimit:10;}
	.st29{fill:none;stroke:#D0D2D3;stroke-linecap:round;stroke-linejoin:round;stroke-miterlimit:10;}
	.st30{fill:#3B7A9E;}
	.st31{fill:#FF9933;}
	.st32{fill:#37288B;}
	.st33{fill:#008080;}
	.st34{fill:#D32F2F;}
	.st35{fill:#0F8243;}
	.st36{fill:none;stroke:#0F8243;stroke-width:3;stroke-linecap:round;stroke-linejoin:round;stroke-miterlimit:10;}
	.st37{fill:none;stroke:#D32F2F;stroke-width:3;stroke-linecap:round;stroke-linejoin:round;stroke-miterlimit:10;}
	.st38{opacity:0.45;}
	.st39{fill:none;stroke:#FFFFFF;stroke-width:8;stroke-linecap:round;stroke-linejoin:round;stroke-miterlimit:10;}
</style>
<g>
	<g>
		<path class="st23" d="M44.7,25.3c-4.4,0-6.4-3.7-6.4-8.2c0-4.5,2-8.2,6.4-8.2s6.4,3.7,6.4,8.2C51.1,21.6,49.1,25.3,44.7,25.3z
			 M44.7,10.2c-3.3,0-4.4,3.6-4.4,6.8c0,3.2,1.1,6.8,4.4,6.8c3.4,0,4.4-3.6,4.4-6.8C49.1,13.8,48,10.2,44.7,10.2z"/>
		<path class="st23" d="M56.6,13.7V25h-1.8V13.7H53v-1.1h1.8v-1.8c0-2.2,1.3-3.9,3.9-3.9c0.2,0,0.4,0,0.4,0v1.1H59
			c-1.2,0-2.4,0.8-2.4,2.5v2h2.6v1.1H56.6z"/>
		<path class="st23" d="M64,13.7V25h-1.8V13.7h-1.8v-1.1h1.8v-1.8c0-2.2,1.3-3.9,3.9-3.9c0.2,0,0.4,0,0.4,0v1.1h-0.2
			c-1.2,0-2.4,0.8-2.4,2.5v2h2.6v1.1H64z"/>
		<path class="st23" d="M69.5,10.3c-0.6,0-1.1-0.5-1.1-1.1c0-0.6,0.5-1.1,1.1-1.1c0.6,0,1.1,0.5,1.1,1.1
			C70.7,9.8,70.2,10.3,69.5,10.3z M68.6,25V12.6h1.8V25H68.6z"/>
		<path class="st23" d="M78.1,25.3c-2.9,0-5.2-2.5-5.2-6.5c0-4,2.3-6.5,5.2-6.5c1.5,0,2.5,0.4,3,0.8l-0.5,1.1
			c-0.4-0.3-1.2-0.7-2.1-0.7c-2.5,0-3.8,2.2-3.8,5.1c0,3,1.5,5.2,3.7,5.2c0.9,0,1.7-0.3,2.2-0.7l0.5,1.2
			C80.7,24.9,79.6,25.3,78.1,25.3z"/>
		<path class="st23" d="M84.1,19.5c0.2,2.9,1.8,4.4,4.3,4.4c1.5,0,2.7-0.4,3.3-0.8l0.5,1.3c-0.8,0.4-2.2,0.8-4,0.8
			c-3.5,0-5.9-2.1-5.9-6.5c0-4.2,2.3-6.4,5.4-6.4c3.1,0,5.1,1.9,5.1,6L84.1,19.5z M87.7,13.5c-2,0-3.7,1.6-3.7,5l7-1
			C91.1,14.7,89.7,13.5,87.7,13.5z"/>
		<path class="st23" d="M101.6,13.7V25h-1.8V13.7h-1.8v-1.1h1.8v-1.8c0-2.2,1.3-3.9,3.9-3.9c0.2,0,0.4,0,0.4,0v1.1h-0.2
			c-1.2,0-2.4,0.8-2.4,2.5v2h2.6v1.1H101.6z"/>
		<path class="st23" d="M110.7,25.3c-3.6,0-5.3-2.8-5.3-6.5c0-3.6,1.7-6.5,5.3-6.5c3.6,0,5.3,2.8,5.3,6.5
			C116,22.5,114.3,25.3,110.7,25.3z M110.7,13.5c-2.7,0-3.5,2.7-3.5,5.3c0,2.5,0.8,5.2,3.5,5.2c2.7,0,3.5-2.6,3.5-5.2
			C114.2,16.3,113.4,13.5,110.7,13.5z"/>
		<path class="st23" d="M123.7,13.8c-1.1-0.3-2.8-0.3-3.6,0.2v11h-1.8V13.2c1.3-0.5,2.6-0.8,4.9-0.8c0.3,0,0.7,0,0.9,0L123.7,13.8z"
			/>
		<path class="st23" d="M140,25.1l-7-10.8c-0.5-0.8-0.9-1.6-0.9-1.6h0c0,0,0.1,0.9,0.1,1.9v10.5h-2.3V9.3h2.6l6.6,10.1
			c0.6,0.9,0.9,1.6,0.9,1.6h0c0,0-0.1-0.9-0.1-1.8V9.3h2.3v15.8H140z"/>
		<path class="st23" d="M149.8,25.4c-3.6,0-5.3-1.4-5.3-3.8c0-3.3,3.5-4.2,7.6-4.6v-0.7c0-1.7-1.2-2.2-2.8-2.2
			c-1.2,0-2.6,0.3-3.3,0.7l-0.6-1.5c0.9-0.4,2.5-0.9,4.4-0.9c2.7,0,4.8,1.1,4.8,4.3v7.8C153.5,25,151.8,25.4,149.8,25.4z
			 M152.1,18.3c-3.1,0.3-5.1,0.9-5.1,3.3c0,1.7,1.2,2.4,3,2.4c0.9,0,1.6-0.2,2.1-0.4V18.3z"/>
		<path class="st23" d="M161.7,25.4c-2.6,0-3.6-1.7-3.6-3.3v-7.7h-1.7v-1.6h1.7V10l2.6-0.7v3.5h2.4v1.6h-2.4v7.5
			c0,1,0.6,1.7,1.7,1.7c0.3,0,0.5,0,0.7-0.1v1.6C162.9,25.2,162.4,25.4,161.7,25.4z"/>
		<path class="st23" d="M166.6,10.6c-0.8,0-1.5-0.6-1.5-1.4c0-0.8,0.7-1.4,1.5-1.4c0.8,0,1.5,0.6,1.5,1.4
			C168.1,10,167.4,10.6,166.6,10.6z M165.2,25.1V12.7h2.7v12.3H165.2z"/>
		<path class="st23" d="M175.8,25.4c-3.8,0-5.6-2.8-5.6-6.5s1.9-6.5,5.6-6.5c3.8,0,5.6,2.8,5.6,6.5S179.6,25.4,175.8,25.4z
			 M175.8,14.1c-2.3,0-2.9,2.4-2.9,4.8c0,2.4,0.7,4.7,2.9,4.7c2.3,0,2.9-2.3,2.9-4.7C178.8,16.5,178.1,14.1,175.8,14.1z"/>
		<path class="st23" d="M191.2,25.1v-8.8c0-1.6-1.3-2.2-2.9-2.2c-0.8,0-1.6,0.2-2.1,0.4v10.6h-2.6V13.3c1.2-0.5,3-0.9,4.9-0.9
			c3.2,0,5.4,1.1,5.4,3.8v8.9H191.2z"/>
		<path class="st23" d="M201.3,25.4c-3.6,0-5.3-1.4-5.3-3.8c0-3.3,3.5-4.2,7.6-4.6v-0.7c0-1.7-1.2-2.2-2.8-2.2
			c-1.2,0-2.6,0.3-3.3,0.7l-0.6-1.5c0.9-0.4,2.5-0.9,4.4-0.9c2.7,0,4.8,1.1,4.8,4.3v7.8C205,25,203.3,25.4,201.3,25.4z M203.6,18.3
			c-3.1,0.3-5.1,0.9-5.1,3.3c0,1.7,1.2,2.4,3,2.4c0.9,0,1.6-0.2,2.1-0.4V18.3z"/>
		<path class="st23" d="M208.8,25.1v-6v-12h2.6v6.1v11.9H208.8z"/>
		<path class="st23" d="M221.9,25.4c-1.9,0-3.4-0.4-4.3-0.9l0.7-1.9c0.6,0.4,1.8,0.8,3,0.8c1.8,0,3.1-1.1,3.1-2.6
			c0-3.5-6.6-2.1-6.6-7c0-2.5,2-4.7,5.2-4.7c1.7,0,3.1,0.5,3.8,0.9l-0.7,1.7c-0.6-0.3-1.7-0.7-2.8-0.7c-1.7,0-2.8,1-2.8,2.5
			c0,3.4,6.7,1.9,6.7,7.1C227.4,23.3,225.1,25.4,221.9,25.4z"/>
		<path class="st23" d="M234.1,25.4c-2.6,0-3.6-1.7-3.6-3.3v-7.7h-1.7v-1.6h1.7V10l2.6-0.7v3.5h2.4v1.6h-2.4v7.5
			c0,1,0.6,1.7,1.7,1.7c0.3,0,0.5,0,0.7-0.1v1.6C235.3,25.2,234.8,25.4,234.1,25.4z"/>
		<path class="st23" d="M242.3,25.4c-3.6,0-5.3-1.4-5.3-3.8c0-3.3,3.5-4.2,7.6-4.6v-0.7c0-1.7-1.2-2.2-2.8-2.2
			c-1.2,0-2.6,0.3-3.3,0.7l-0.6-1.5c0.9-0.4,2.5-0.9,4.4-0.9c2.7,0,4.8,1.1,4.8,4.3v7.8C246,25,244.3,25.4,242.3,25.4z M244.6,18.3
			c-3.1,0.3-5.1,0.9-5.1,3.3c0,1.7,1.2,2.4,3,2.4c0.9,0,1.6-0.2,2.1-0.4V18.3z"/>
		<path class="st23" d="M254.2,25.4c-2.6,0-3.6-1.7-3.6-3.3v-7.7h-1.7v-1.6h1.7V10l2.6-0.7v3.5h2.4v1.6h-2.4v7.5
			c0,1,0.6,1.7,1.7,1.7c0.3,0,0.5,0,0.7-0.1v1.6C255.4,25.2,254.9,25.4,254.2,25.4z"/>
		<path class="st23" d="M259.1,10.6c-0.8,0-1.5-0.6-1.5-1.4c0-0.8,0.7-1.4,1.5-1.4c0.8,0,1.5,0.6,1.5,1.4
			C260.6,10,259.9,10.6,259.1,10.6z M257.7,25.1V12.7h2.7v12.3H257.7z"/>
		<path class="st23" d="M266.1,25.4c-1.5,0-3-0.4-3.7-0.9l0.7-1.7c0.5,0.4,1.6,0.7,2.7,0.7c1.3,0,2.4-0.9,2.4-1.9
			c0-2.9-5.4-1.6-5.4-5.6c0-1.8,1.6-3.6,4.3-3.6c1.5,0,2.6,0.4,3.5,0.9l-0.7,1.5c-0.4-0.3-1.2-0.7-2.3-0.7c-1.4,0-2.2,0.8-2.2,1.8
			c0,2.8,5.5,1.5,5.5,5.7C271,23.5,269.1,25.4,266.1,25.4z"/>
		<path class="st23" d="M277.7,25.4c-2.6,0-3.6-1.7-3.6-3.3v-7.7h-1.7v-1.6h1.7V10l2.6-0.7v3.5h2.4v1.6h-2.4v7.5
			c0,1,0.6,1.7,1.7,1.7c0.3,0,0.5,0,0.7-0.1v1.6C278.9,25.2,278.3,25.4,277.7,25.4z"/>
		<path class="st23" d="M282.5,10.6c-0.8,0-1.5-0.6-1.5-1.4c0-0.8,0.7-1.4,1.5-1.4c0.8,0,1.5,0.6,1.5,1.4
			C284.1,10,283.4,10.6,282.5,10.6z M281.2,25.1V12.7h2.7v12.3H281.2z"/>
		<path class="st23" d="M291.5,25.4c-3,0-5.4-2.5-5.4-6.5c0-4.1,2.4-6.5,5.4-6.5c1.5,0,2.6,0.4,3.2,0.9l-0.6,1.5
			c-0.4-0.3-1.1-0.6-1.9-0.6c-2.1,0-3.3,1.9-3.3,4.6c0,2.8,1.3,4.7,3.2,4.7c0.8,0,1.5-0.3,1.9-0.6l0.7,1.6
			C294.1,25,293,25.4,291.5,25.4z"/>
		<path class="st23" d="M299.6,25.4c-1.5,0-3-0.4-3.7-0.9l0.7-1.7c0.5,0.4,1.6,0.7,2.7,0.7c1.3,0,2.4-0.9,2.4-1.9
			c0-2.9-5.4-1.6-5.4-5.6c0-1.8,1.6-3.6,4.3-3.6c1.5,0,2.6,0.4,3.5,0.9l-0.7,1.5c-0.4-0.3-1.2-0.7-2.3-0.7c-1.4,0-2.2,0.8-2.2,1.8
			c0,2.8,5.5,1.5,5.5,5.7C304.4,23.5,302.5,25.4,299.6,25.4z"/>
	</g>
	<g>
		<path class="st23" d="M4.4,18.3c0.4-0.8,0.7-1.5,1.1-2.2c-0.5-1.2-0.8-1.9-1.1-3.2C4.4,15,4.4,16.5,4.4,18.3z M6.9,3
			c0,0-2.4,0-2.4,3c0,0.2,0-0.3,0,0.5c0.2,2.8,1.1,5.6,2.1,8.1c1.4-2.2,2.6-3.5,4.6-5.2C15.1,6,19.7,4,27,3H6.9z"/>
		<path class="st23" d="M30.5,4.6c-8.3,0.8-14,3.2-18,6.6c-2.2,1.9-3.5,3.4-4.9,5.9c3.2,6.2,9.7,11.4,19.8,12l0.2,0
			c0,0,3.1,0.1,3.1-3.4V4.6C30.6,4.6,30.6,4.6,30.5,4.6z M9.2,22.2c-1-1.1-1.8-2.3-2.5-3.6c-0.9,1.7-1.6,3.5-2.3,5.4
			c0,3,0,5.1,0,5.1l15.3,0C14.9,27.7,11.9,25.5,9.2,22.2z"/>
	</g>
</g>
</svg>
