<?xml version="1.0" encoding="utf-8"?>
<!-- Generator: Adobe Illustrator 22.1.0, SVG Export Plug-In . SVG Version: 6.00 Build 0)  -->
<svg version="1.1" id="Layer_1" xmlns="http://www.w3.org/2000/svg" xmlns:xlink="http://www.w3.org/1999/xlink" x="0px" y="0px"
	 viewBox="0 0 59.3 41" style="enable-background:new 0 0 59.3 41;" xml:space="preserve">
<style type="text/css">
	.st0{opacity:0.15;}
	.st1{fill-rule:evenodd;clip-rule:evenodd;fill:#FFFFFF;}
	.st2{fill:#FFFFFF;}
	.st3{fill:#206095;}
	.st4{opacity:0.2;fill-rule:evenodd;clip-rule:evenodd;fill:#FFFFFF;}
	.st5{opacity:0.2;}
	.st6{opacity:0.2;fill:#FFFFFF;}
	.st7{opacity:0.2;fill-rule:evenodd;clip-rule:evenodd;fill:none;stroke:#FFFFFF;stroke-miterlimit:10;}
	.st8{fill:#D2376D;}
	.st9{fill:#002538;}
	.st10{fill:#86BC25;}
	.st11{opacity:0.5;}
	.st12{fill:#00A7A3;}
	.st13{fill:#E1BB23;}
	.st14{fill:#003C57;}
	.st15{fill:#00696F;}
	.st16{fill:#E2BC23;}
	.st17{fill:#003B56;}
	.st18{fill:#00A8A4;}
	.st19{fill:#F39638;}
	.st20{fill:#206196;}
	.st21{fill:#F3F2F3;}
	.st22{fill:#333133;}
	.st23{fill:#414042;}
	.st24{fill:#D0D2D3;}
	.st25{fill:#EAEAEA;}
	.st26{fill:none;stroke:#414042;stroke-linecap:round;stroke-linejoin:round;stroke-miterlimit:10;}
	.st27{fill:none;stroke:#EAEAEA;stroke-linecap:round;stroke-linejoin:round;stroke-miterlimit:10;}
	.st28{fill:none;stroke:#333133;stroke-linecap:round;stroke-linejoin:round;stroke-miterlimit:10;}
	.st29{fill:none;stroke:#D0D2D3;stroke-linecap:round;stroke-linejoin:round;stroke-miterlimit:10;}
	.st30{fill:#3B7A9E;}
	.st31{fill:#FF9933;}
	.st32{fill:#37288B;}
	.st33{fill:#008080;}
	.st34{fill:#D32F2F;}
	.st35{fill:#0F8243;}
	.st36{fill:none;stroke:#0F8243;stroke-width:3;stroke-linecap:round;stroke-linejoin:round;stroke-miterlimit:10;}
	.st37{fill:none;stroke:#D32F2F;stroke-width:3;stroke-linecap:round;stroke-linejoin:round;stroke-miterlimit:10;}
	.st38{opacity:0.45;}
	.st39{fill:none;stroke:#FFFFFF;stroke-width:8;stroke-linecap:round;stroke-linejoin:round;stroke-miterlimit:10;}
</style>
<path class="st23" d="M54.1,17.2L41.2,4.2c-1.6-1.6-4.1-1.6-5.7,0c-1.6,1.6-1.6,4.1,0,5.7l6.1,6.1H6.2c-2.2,0-4,1.8-4,4
	c0,2.2,1.8,4,4,4h35.4l-6.1,6.1c-1.6,1.6-1.6,4.1,0,5.7c0.8,0.8,1.8,1.2,2.8,1.2s2-0.4,2.8-1.2l12.9-12.9c0.8-0.8,1.2-1.8,1.2-2.8
	C55.3,18.9,54.9,17.9,54.1,17.2z"/>
</svg>
