<?xml version="1.0" encoding="utf-8"?>
<!-- Generator: Adobe Illustrator 22.1.0, SVG Export Plug-In . SVG Version: 6.00 Build 0)  -->
<svg version="1.1" id="Layer_1" xmlns="http://www.w3.org/2000/svg" xmlns:xlink="http://www.w3.org/1999/xlink" x="0px" y="0px"
	 viewBox="0 0 282 559.6" style="enable-background:new 0 0 282 559.6;" xml:space="preserve">
<style type="text/css">
	.st0{opacity:0.15;}
	.st1{fill-rule:evenodd;clip-rule:evenodd;fill:#FFFFFF;}
	.st2{fill:#FFFFFF;}
	.st3{fill:#206095;}
	.st4{opacity:0.2;fill-rule:evenodd;clip-rule:evenodd;fill:#FFFFFF;}
	.st5{opacity:0.2;}
	.st6{opacity:0.2;fill:#FFFFFF;}
	.st7{opacity:0.2;fill-rule:evenodd;clip-rule:evenodd;fill:none;stroke:#FFFFFF;stroke-miterlimit:10;}
	.st8{fill:#D2376D;}
	.st9{fill:#002538;}
	.st10{fill:#86BC25;}
	.st11{opacity:0.5;}
	.st12{fill:#00A7A3;}
	.st13{fill:#E1BB23;}
	.st14{fill:#003C57;}
	.st15{fill:#00696F;}
	.st16{fill:#E2BC23;}
	.st17{fill:#003B56;}
	.st18{fill:#00A8A4;}
	.st19{fill:#F39638;}
	.st20{fill:#206196;}
	.st21{fill:#F3F2F3;}
	.st22{fill:#333133;}
	.st23{fill:#414042;}
	.st24{fill:#D0D2D3;}
	.st25{fill:#EAEAEA;}
	.st26{fill:none;stroke:#414042;stroke-linecap:round;stroke-linejoin:round;stroke-miterlimit:10;}
	.st27{fill:none;stroke:#EAEAEA;stroke-linecap:round;stroke-linejoin:round;stroke-miterlimit:10;}
	.st28{fill:none;stroke:#333133;stroke-linecap:round;stroke-linejoin:round;stroke-miterlimit:10;}
	.st29{fill:none;stroke:#D0D2D3;stroke-linecap:round;stroke-linejoin:round;stroke-miterlimit:10;}
	.st30{fill:#3B7A9E;}
	.st31{fill:#FF9933;}
	.st32{fill:#37288B;}
	.st33{fill:#008080;}
	.st34{fill:#D32F2F;}
	.st35{fill:#0F8243;}
	.st36{fill:none;stroke:#0F8243;stroke-width:3;stroke-linecap:round;stroke-linejoin:round;stroke-miterlimit:10;}
	.st37{fill:none;stroke:#D32F2F;stroke-width:3;stroke-linecap:round;stroke-linejoin:round;stroke-miterlimit:10;}
	.st38{opacity:0.45;}
	.st39{fill:none;stroke:#FFFFFF;stroke-width:8;stroke-linecap:round;stroke-linejoin:round;stroke-miterlimit:10;}
	.st40{fill:#5F7682;}
</style>
<g>
	<path class="st40" d="M140.8,118.2c23.8,0,43.1-19.3,43.1-43.2c0-23.8-19.3-43.2-43.1-43.2C117,31.9,97.6,51.2,97.6,75
		C97.6,98.9,117,118.2,140.8,118.2z"/>
	<path class="st40" d="M238,304.6L233,183c-4.2-25.7-27.3-55.3-64-55.3h-56.5c-36.7,0-59.8,29.6-64,55.3l-8.8,121.6
		c-1.3,8.1,4.1,15.7,12.2,17c8.1,1.3,14.9-4.2,17-12.2l15.9-102.3c0.5-1.8,2.3-2.9,4.1-2.4c1.8,0.4,2.9,2.3,2.4,4.1l-3.2,101
		c-1.3,6.2,17.9,194.7,17.9,194.7c1,6.3,7,11.3,13.3,11.3h41.3c6.3,0,12.2-5.1,13.1-11.4c0,0,19.2-188,17.9-194.3l-1.7-101.5
		c-0.5-1.8,0.6-3.6,2.4-4.1c1.8-0.5,3.6,0.6,4.1,2.4l12.2,102.3c2.2,8,9,13.5,17,12.2C233.9,320.3,239.4,312.7,238,304.6z"/>
</g>
</svg>
