<?xml version="1.0" encoding="utf-8"?>
<!-- Generator: Adobe Illustrator 22.1.0, SVG Export Plug-In . SVG Version: 6.00 Build 0)  -->
<svg version="1.1" id="Layer_1" xmlns="http://www.w3.org/2000/svg" xmlns:xlink="http://www.w3.org/1999/xlink" x="0px" y="0px"
	 viewBox="0 0 791.1 1264.5" style="enable-background:new 0 0 791.1 1264.5;" xml:space="preserve">
<style type="text/css">
	.st0{fill-rule:evenodd;clip-rule:evenodd;fill:#D8D8D8;}
	.st1{fill:#897DB9;}
	.st2{fill:#EC904B;}
	.st3{fill:#579FC6;}
	.st4{fill:#8DBB55;}
	.st5{fill:#D8D8D8;}
</style>
<g>
	<path class="st0" d="M495.7,113.2c-0.4,0.6-0.9,1.2-1.6,1.8c-0.9,0.7-1.9,0.9-2.9,1.1c-1.1,0.2-2.2,0.4-2.4,1.5c0,0.1,0,0.3,0,0.4
		c0.1,0.7,0.9,1.2,1.6,1.5c0.9,0.5,1.4,0.8,1.5,1.4c0,0.2,0,0.3,0,0.5c-0.3,1.3-0.7,2.3-1,2.8c-0.5-0.6-0.9-1.2-1.1-1.5
		c0,0,0-0.7,0-0.7c0-1.1,0-2.6-1-3.1c-0.7-0.3-1.5-0.1-2.6,0.7l-0.9,0.7c-2.6,1.9-4.4,3.2-4.1,4.5c0.2,0.9,1.2,1.2,1.6,1.3
		c1.8,0.5,3.3-0.3,4.3-0.8c0.3-0.1,0.6-0.3,0.8-0.4c0.5,0.7,1.5,1.4,2.3,1.9c0,0,0.7,0.5,0.8,0.6c0,0.1,0.4,2.8,0.4,2.8
		c0,0.1,1.3,5.8,3.6,6.8c0.4,1.3,2.4,3.4,4,4.8c-0.8,0.8-2.3,2.4-2.6,3.4c-0.1,0.3-0.3,0.5-0.6,0.6c-0.4,0.1-0.9-0.1-1.4-0.5
		c-0.3-0.3-0.7-0.4-1.1-0.4c-0.9,0.1-1.7,1-2.4,1.7c0,0-0.4,0.4-0.5,0.5c-0.1,0-0.4-0.1-0.4-0.1c-1-0.3-2.7-0.8-4.3,0.3
		c-0.8,0.5-2.2,0.3-3.5,0c-1.4-0.2-2.7-0.5-3.6,0.1c-0.5,0.3-0.9,1-0.9,1.9c-0.2,2.2,1.1,5.8,2.3,6.9c0,0,0.5,0.5,0.5,0.5
		c1.2,1,2.1,1.8,4.2,1.3c0.9-0.2,1.8-0.1,2.2,0.3c0.2,0.2,0.3,0.5,0.3,0.8c-0.2,1.1,0.6,2.6,1.4,3.6c0.5,0.6,1,1,1.5,1
		c0.8,0,1.7-1,3.7-3.5l1.6-1.9c0.6-0.6,0.7-1.3,0.7-2c0.5,0.5,1,1.1,1,1.1c0.2,0.2,0.4,0.3,0.7,0.2c0,0,1.3-0.4,2.2-0.7
		c-0.1,1-0.2,2.9-0.4,5.1c-0.2,1.7-0.1,2.6,0,3.5c0,0.2,0.1,0.4,0.1,0.6c0,0.2,0.1,0.5,0.1,0.8c0.1,0.8,0.3,1.7,0.3,3.2
		c0.1,2.7-0.3,3.4-1,4.4c-0.4,0.6-0.9,1.3-1.3,2.5l-1.2,3.2c-1.1,3-2.4,6.3-2.6,8.7c-0.1,0.9-0.3,3.2,0,5c0.1,0.8,0.4,1.5,0.7,1.9
		c0.4,0.4,0.8,0.5,1,0.5c0.5,0,1.9,1.6,3.1,3.3c0.1,0.2,0.4,0.3,0.7,0.3c0.3-0.1,0.5-0.3,0.5-0.5l1.1-7c0.6-3.5,1.3-6.2,1.7-7.3
		l0.6-1c0.9-1.3,2.2-3.3,2.2-6.7l0-0.3c0-3.6,0-3.6,0.4-6.4l0.1-0.8c0.3-2.1,2.3-3.2,3.8-4.1c1.1-0.6,1.9-1.1,2-1.8
		c0-0.1,0-0.2,0-0.3c-0.2-1.4-3.1-2.7-5-3.4c-0.3-0.7-0.8-2-0.9-3.2c-0.1-0.4-0.1-0.9-0.1-1.2c0.1-0.6,0.1-0.6,1.1-0.8
		c0.6-0.1,1.5-0.2,2.5-0.7c0.7-0.3,1.1-0.7,1.3-1.2c0-0.2,0-0.4,0-0.5c-0.1-0.7-0.7-1.3-1.2-1.9c-0.3-0.3-0.7-0.8-0.8-1l0,0
		c0,0,0.6-0.6,0.6-0.6c0.9-0.9,2.1-2.2,1.7-4.2c-0.2-1.2-0.8-1.6-1.2-1.9c-0.3-0.2-0.4-0.3,0.1-1.4c0.5-1.2,0.9-1.3,1.3-1.5
		c0.6-0.2,1.1-0.5,1.2-1.7c0.2-1.9,0.3-6.5,0.3-6.7c0-0.3-0.2-0.5-0.4-0.6c-0.3-0.1-0.6,0-0.7,0.2c-1.1,1.5-3.2,3.8-4.6,3.6
		c-0.3-0.1-0.4-0.2-0.4-0.2c-0.3-0.5,0.3-1.9,0.7-2.7l0.5-1.4c0.4-1.5-1.7-3.6-3.2-4.1c-1-0.3-1.8,0-2.2,0.9
		c-0.4,1.1-1.2,2.2-1.9,3.4c-0.6,0.9-1.2,1.9-1.7,2.9c-0.5,1.1-1.4,1.3-2.3,1.6c0,0,0-0.1,0-0.1c-0.1-0.6-0.1-1.2,0.3-1.8l0.4-0.8
		c1-1.7,2.2-3.7,2.3-5.5c0-0.3,0-0.6-0.1-0.9c-0.1-0.6-0.3-1.1-0.4-1.5c-0.1-0.4-0.3-0.8-0.3-1.1c-0.1-0.3,0-0.6,0.1-1l0.5-1.2
		c0.5-1.1,0.9-2.2,1-4.6l0.3-2.4c0.1-0.9,0.3-1.6,0.2-2.1c0-0.3-0.2-0.6-0.4-0.8c-0.3-0.4-0.8-0.5-1.5-0.4
		C497.2,111.1,496.5,112.1,495.7,113.2z M483,124.9c-0.6-0.2-0.7-0.3-0.7-0.3c0-0.5,2.2-2.2,3.6-3.2l0.9-0.7c1-0.8,1.3-0.6,1.3-0.6
		c0.1,0.1,0.2,0.3,0.2,0.6c0.1,0.5,0.1,1.1,0.1,1.4c0,0.4,0,0.7,0,0.9c0,0.1,0,0.2,0.1,0.3c0.2,0.6,1,1.5,1.5,2.1
		c-0.6-0.4-1.1-0.8-1.4-1.2c-0.6-1-1.6-0.4-2.4,0C485.4,124.6,484.3,125.2,483,124.9z M494.9,116c0.8-0.7,1.3-1.4,1.8-2
		c0.7-1,1.2-1.6,2.3-1.7c0.4,0,0.5,0,0.5,0c0,0,0,0.1,0,0.1c0.1,0.3-0.1,1.1-0.2,1.7l-0.3,2.6c-0.1,2.2-0.5,3.1-0.9,4.1l-0.5,1.3
		c-0.2,0.6-0.2,1.1-0.1,1.6c0.1,0.5,0.2,0.9,0.4,1.4c0.2,0.4,0.3,0.8,0.4,1.3c0,0.2,0.1,0.4,0,0.6c0,1.4-1.2,3.3-2.1,4.8l-0.5,0.8
		c-0.4,0.8-0.6,1.7-0.4,2.7c0,0.2,0.1,0.5,0.2,0.7c0,0-0.1-0.1-0.1-0.1c-1.1-0.1-2.6-4-3-5.9l-0.3-2.4l-0.1-0.7
		c-0.1-0.3-0.4-0.5-1-0.9c0.2,0,0.3-0.1,0.5-0.3c0-0.1,1-1.4,1.6-4c0.5-2-1.1-2.8-2.1-3.3c-0.3-0.2-0.9-0.5-0.9-0.6
		c0-0.2,0.7-0.3,1.3-0.4C492.4,117.2,493.8,116.9,494.9,116z M494.7,136.6c0-0.1,0-0.1,0-0.2C494.7,136.5,494.7,136.6,494.7,136.6
		C494.7,136.6,494.7,136.6,494.7,136.6z M496.4,136.6l0.6-0.2c1-0.3,2.3-0.7,3.1-2.3c0.4-0.9,1-1.8,1.6-2.7c0.8-1.2,1.5-2.4,2-3.6
		c0.1-0.2,0.1-0.3,0.6-0.2c1.2,0.4,2.5,2.1,2.4,2.6l-0.5,1.2c-0.6,1.3-1.2,2.8-0.6,3.8c0.2,0.3,0.5,0.7,1.3,0.8
		c1.6,0.3,3.4-1.3,4.6-2.6c-0.1,1.5-0.1,3.6-0.3,4.7c-0.1,0.5-0.1,0.5-0.4,0.6c-0.7,0.2-1.3,0.6-2,2.1c-0.4,0.9-0.5,1.4-0.4,1.9
		c0.1,0.4,0.3,0.7,0.7,1c0.3,0.2,0.6,0.4,0.7,1.2c0,0,0,0,0,0.1c0.2,1.4-0.5,2.2-1.4,3l-0.7,0.8c-0.2,0.3-0.3,0.6-0.2,0.9
		c0.1,0.6,0.6,1.2,1.1,1.7c0.3,0.3,0.8,0.9,0.9,1.2c0,0,0,0,0,0.1c0,0-0.1,0.2-0.5,0.3c-1,0.4-1.7,0.5-2.3,0.6
		c-1.1,0.2-2,0.3-2.2,1.9c-0.1,0.5,0,1,0.1,1.6c0.3,1.7,1.1,3.6,1.1,3.7c0.1,0.2,0.2,0.3,0.4,0.3c2.2,0.8,4.3,2,4.5,2.5
		c-0.1,0.1-0.8,0.6-1.4,0.9c-1.6,0.9-4.1,2.3-4.5,5l-0.1,0.8c-0.4,2.9-0.4,2.9-0.4,6.6l0,0.3c0,3-1.1,4.7-2,6l-0.7,1.2
		c-0.6,1.4-1.3,4.4-1.8,7.6c0,0-0.6,3.6-0.9,5.5c-0.9-1.2-2.2-2.6-3.2-2.6c0,0-0.1,0-0.1-0.1c-0.2-0.2-0.3-0.6-0.4-1.2
		c-0.2-1.1-0.2-2.7,0-4.7c0.3-2.3,1.5-5.6,2.6-8.4l1.2-3.3c0.3-1.1,0.7-1.6,1.1-2.2c0.7-1.1,1.3-2,1.2-5.1c-0.1-1.5-0.2-2.6-0.3-3.4
		c0-0.3-0.1-0.5-0.1-0.8c0-0.2-0.1-0.4-0.1-0.6c-0.1-0.8-0.2-1.6,0-3.1c0.4-3.5,0.5-6.1,0.5-6.1c0,0,0-0.1,0-0.1
		c0-0.2-0.1-0.3-0.3-0.4c-0.2-0.1-0.4-0.2-0.6-0.1c0,0-2.1,0.7-2.7,0.9c-0.5-0.5-2.7-3-2.7-3c-0.2-0.2-0.6-0.3-0.9-0.1
		c-0.2,0.1-0.3,0.4-0.2,0.6c0,0.1,0,0.2,0.1,0.2c0,0,0.6,1,0.8,2c0.1,0.6,0,1.1-0.3,1.5l-1.7,2c-0.8,1-2.2,2.7-2.7,3
		c-0.5-0.2-1.5-1.6-1.6-2.6c0-0.1,0-0.3,0-0.4c0-0.2,0-0.5,0-0.7c-0.1-0.5-0.3-0.9-0.7-1.3c-0.8-0.7-2-0.9-3.4-0.6
		c-1.5,0.4-2-0.1-3.1-1l-0.6-0.5c-0.9-0.7-2-3.9-1.9-5.8c0-0.6,0.2-0.8,0.3-0.9c0.5-0.3,1.6-0.1,2.7,0.1c1.5,0.3,3.2,0.6,4.4-0.2
		c1.1-0.7,2.4-0.4,3.3-0.1l1,0.2c0.4-0.1,0.8-0.4,1.2-1c0.4-0.5,1.1-1.3,1.5-1.3c0,0,0.1,0,0.2,0.1c0.8,0.7,1.7,1,2.5,0.8
		c0.7-0.2,1.2-0.7,1.4-1.4c0.3-0.8,1.9-2.5,2.8-3.4c0.1-0.1,0.2-0.3,0.2-0.5c0,0,0-0.1,0-0.1c0-0.1-0.1-0.3-0.2-0.4
		c-2.2-1.9-4.1-4-4.2-4.6c0,0,0,0,0,0c0,0,0-0.1,0-0.1C496.1,136.6,496.2,136.6,496.4,136.6z"/>
	<path class="st0" d="M527.7,84.7c-2.3,0.8-3,2.3-3.6,3.5l-0.6,1.1c-1,1.2-1.7,3-1.9,4.7l-0.1,1.2c-0.1,1.2-0.1,2.6-0.9,3.2
		c-1.4,1.3-1.5,3.4-1.5,3.5c0,0.1,0,0.2,0.1,0.3c0.5,1.1,3,1.5,4.5,1.2c0.3-0.1,0.6,0.1,1,0.4c0.4,0.3,0.9,0.6,1.5,0.4
		c0.6-0.2,0.8-1,1-1.7c0.3-1.3,0.3-1.9,0.3-2.5c0-0.7,0-1.3,0.5-3.1c0.5-1.5,0.7-2.6,0.9-3.6c0.3-1.2,0.5-2.2,1-3.2
		c0.7-1.4,1.4-3.8,0.4-5C529.8,84.6,529.1,84.2,527.7,84.7z M521.5,99.4c1.1-1,1.2-2.7,1.3-4.1l0.1-1.1c0.2-1.2,0.7-2.9,1.6-4.1
		l0.8-1.3c0.5-1.1,1-2.2,2.9-2.8c0.3-0.1,0.9-0.3,1.1,0c0.1,0.1,0.1,0.2,0.2,0.4c0.1,0.7-0.2,2-0.7,3.1c-0.6,1.2-0.8,2.3-1.1,3.6
		c-0.2,1-0.4,2.1-0.9,3.5c-0.6,1.9-0.6,2.7-0.6,3.5c0,0.6,0,1.1-0.2,2.2c-0.1,0.4-0.2,0.6-0.2,0.7c-0.1-0.1-0.3-0.2-0.3-0.2
		c-0.4-0.3-1.1-0.7-2-0.5c-1.2,0.3-2.6-0.1-3-0.4C520.5,101.3,520.7,100.1,521.5,99.4z"/>
	<path class="st0" d="M523,110.9c-0.1,0-0.1,0.1-0.2,0.1c-0.1,0-1.4,1.2-1.5,3.7c0,0.8,0.2,1.4,0.7,1.7c0.9,0.6,2.1,0.2,3.6-0.3
		l0.6-0.2c0.7-0.2,1.4-0.3,2-0.3c0.9-0.1,2-0.1,2.3-1.4c0.4-1.3-0.6-2.7-2.6-3.9C526.5,109.6,523.5,110.7,523,110.9z M527.2,111.5
		c0.7,0.4,2.3,1.4,2,2.4c-0.1,0.3-0.2,0.4-1.2,0.5c-0.6,0-1.4,0.1-2.3,0.4l-0.6,0.2c-0.9,0.3-2.1,0.7-2.4,0.5
		c-0.1,0-0.1-0.2-0.1-0.3c0-0.1,0-0.2,0-0.4c0-1.7,0.8-2.5,1-2.7C524.7,111.6,526.6,111.1,527.2,111.5z"/>
	<path class="st0" d="M512.9,97.4c-2.2,2.4-3.3,5-2.7,6.5c0.4,1.1,0.7,2.9,0.5,3.5c-0.1,0.2-0.5,0.4-0.9,0.4c-0.5-0.1-2-0.5-3,0.5
		c-0.9,1-1.2,4.1-1.2,4.7c0,0.3,0.2,0.7,0.6,0.7c0,0,0.6,0.1,0.9,0.5c0.2,0.3,0.3,0.7,0.3,1.2c-0.2,2.2-0.1,5.1,0.2,6.5
		c0.2,0.7,0.5,2.1,1.7,2.7c1.1,0.5,2.5,0.3,4.4-0.6c1.7-0.8,2.9-2,3.4-3.4c0.3-0.8,0.3-1.7,0.2-2.7c-0.1-0.8-0.4-1.6-0.8-2.5l-1-1.8
		c-0.4-0.7-0.9-1.5-0.9-2c0-0.1,0-0.2,0-0.3c0.6-0.7,0.6-1.8,0.6-2.6c0,0,0-0.1,0-0.2c0.1,0,0.1,0,0.2,0c0.6,0,1.1-0.5,1.7-1.5
		c1.5-2.4,2-4.4,1.7-6.4c-0.2-1.3-1.4-3.5-3-4C515,96.3,513.9,96.3,512.9,97.4z M512,107.8c0.3-1-0.1-3.2-0.6-4.3
		c-0.3-0.9,0.4-3,2.4-5.2c0.7-0.8,1.3-0.6,1.5-0.6c1,0.3,2,1.9,2.1,2.9c0,0,0,0,0,0.1c0.1,1.2,0.1,2.9-1.6,5.6
		c-0.3,0.6-0.6,0.8-0.7,0.9c0,0,0,0,0,0c-0.1-0.1-0.4-0.4-0.8-0.3c-0.4,0.1-0.5,0.5-0.6,0.7l-0.1,1.2c0,0.7,0,1.4-0.3,1.7
		c-0.8,1-0.1,2.2,0.8,3.8l0.9,1.8c0.8,1.7,1,3.1,0.6,4.3c-0.4,1.1-1.3,2-2.7,2.6c-1.5,0.7-2.6,0.9-3.2,0.6c-0.7-0.3-0.9-1.2-1-1.8
		c0-0.1,0-0.2-0.1-0.3c-0.2-1.4-0.3-3.8-0.1-5.8c0-0.3,0-0.6,0-0.9c-0.1-0.5-0.3-0.9-0.6-1.2c-0.4-0.4-0.8-0.6-1.1-0.8
		c0.1-1.5,0.5-3,0.8-3.4c0.4-0.5,1.5-0.3,1.8-0.2c0.1,0,0.1,0,0.2,0C510,109.1,511.6,109,512,107.8z"/>
	<path class="st0" d="M517.5,137.2c-0.5,0.4-0.7,0.8-0.8,1.4c-0.1,2-0.8,5.5-0.8,5.6c-0.1,0.3,0.1,0.6,0.4,0.7
		c0.3,0.1,0.6,0.1,0.8-0.2c0,0,1.5-1.9,4-3.8c2.7-2,3.2-2.9,3.1-3.5c0-0.2-0.2-0.6-0.8-0.7C523.2,136.6,519.2,135.9,517.5,137.2z
		 M518,138.6c0-0.1,0-0.3,0.3-0.4c0.9-0.7,3.2-0.6,4.4-0.4c-0.3,0.3-0.9,0.9-2.4,2c-1.1,0.8-2,1.7-2.8,2.4
		C517.7,141.1,517.9,139.7,518,138.6z"/>
	<path class="st0" d="M512.1,131.5c0,0-2.9,4.1-4.9,3.8c-0.3-0.1-0.6-0.2-0.7-0.4c-0.4-0.6,0.2-2,0.7-3l0.5-1.3
		c0.3-1.2-1.6-3.2-3-3.7c-0.8-0.3-1.5,0-1.7,0.7c-0.5,1.1-1.2,2.3-2,3.4c-0.6,0.9-1.2,1.9-1.7,2.8c-0.6,1.3-1.6,1.5-2.6,1.8
		c0,0-0.2,0.1-0.3,0.1c0-0.2-0.1-0.3-0.1-0.5c-0.1-0.6-0.1-1.4,0.3-2.1l0.4-0.8c1-1.6,2.2-3.6,2.2-5.3c0-0.3,0-0.5-0.1-0.8
		c-0.1-0.5-0.3-1-0.4-1.4c-0.2-0.4-0.3-0.8-0.4-1.2c-0.1-0.4-0.1-0.7,0.1-1.1l0.5-1.3c0.4-1,0.9-2.1,1-4.4l0.3-2.5
		c0.1-0.8,0.2-1.5,0.2-2c0-0.2-0.1-0.4-0.3-0.6c-0.2-0.3-0.7-0.4-1.2-0.3c-1.5,0.1-2.1,1-2.9,2.1c-0.4,0.6-0.9,1.3-1.6,1.9
		c-0.9,0.8-2.1,1-3.1,1.2c-1,0.2-1.9,0.3-2,1.2c0,0.1,0,0.2,0,0.3c0.1,0.6,0.7,0.9,1.4,1.2c0.8,0.4,1.6,0.8,1.7,1.6
		c0,0.2,0,0.4,0,0.7c-0.4,1.8-1,2.9-1.3,3.4c-0.5-0.6-1.3-1.5-1.5-2c0,0,0-0.1,0-0.1c0-0.2,0-0.5,0-0.8c0-0.5,0-1-0.1-1.5
		c-0.1-0.6-0.3-1-0.7-1.3c-0.5-0.3-1.3,0-2.2,0.7l-0.9,0.7c-2.4,1.8-4.2,3.1-4,4.1c0.1,0.5,0.5,0.8,1.3,1c1.7,0.5,3-0.3,4-0.8
		c0.8-0.4,1.1-0.5,1.2-0.3c0.4,0.7,1.4,1.3,2.2,1.9c0.4,0.3,0.9,0.6,1,0.7c0,0,0.1,0.5,0.1,0.5l0.3,2.4c0.2,1.3,1.7,6,3.5,6.6
		c0,0,0,0,0,0c0.2,1.3,3.3,4.1,4.3,5c-0.6,0.6-2.4,2.5-2.8,3.6c-0.2,0.4-0.4,0.7-0.8,0.8c-0.5,0.1-1.1-0.1-1.7-0.6
		c-0.2-0.2-0.5-0.3-0.8-0.3c-0.8,0.1-1.5,0.9-2.1,1.6c-0.2,0.3-0.6,0.6-0.7,0.7c0,0-0.6-0.1-0.6-0.1c-1-0.3-2.5-0.7-4,0.2
		c-0.9,0.6-2.4,0.3-3.8,0.1c-1.3-0.2-2.5-0.4-3.3,0c-0.4,0.3-0.7,0.8-0.7,1.6c-0.2,2.1,1,5.6,2.2,6.6l0.6,0.5c1.1,1,1.9,1.7,3.8,1.2
		c1.1-0.3,2-0.1,2.6,0.4c0.3,0.3,0.5,0.7,0.4,1.2c-0.1,1,0.6,2.4,1.3,3.3c0.3,0.4,0.8,0.8,1.2,0.8c0.6,0,1.7-1.3,3.4-3.3l1.7-2
		c0.6-0.6,0.7-1.5,0.5-2.3c0-0.3-0.1-0.5-0.2-0.8c0.9,1,1.9,2.1,1.9,2.1c0.1,0.1,0.2,0.1,0.3,0.1c0,0,2.2-0.7,2.7-0.9
		c0,0.8-0.1,2.9-0.5,5.7c-0.2,1.6-0.1,2.5,0,3.4c0,0.2,0.1,0.4,0.1,0.6c0,0.2,0.1,0.5,0.1,0.8c0.1,0.8,0.3,1.8,0.3,3.3
		c0.1,2.9-0.4,3.6-1,4.6c-0.4,0.6-0.8,1.2-1.2,2.4l-1.2,3.3c-1.1,2.9-2.3,6.3-2.6,8.7c-0.2,1.7-0.3,3.5,0,4.9
		c0.1,0.7,0.3,1.3,0.6,1.7c0.2,0.2,0.5,0.4,0.8,0.4c0.8,0,2.5,2.1,3.4,3.5c0.1,0.1,0.2,0.1,0.3,0.1c0.1,0,0.2-0.1,0.2-0.2l1.1-7
		c0.5-3.1,1.2-6.1,1.8-7.4l0.6-1.1c0.9-1.3,2.1-3.2,2.1-6.5l0-0.4c0-3.6,0-3.6,0.4-6.4l0.1-0.8c0.3-2.3,2.5-3.5,4-4.3
		c1-0.6,1.8-1,1.9-1.6c0-0.1,0-0.1,0-0.2c-0.2-1.3-3.9-2.8-4.9-3.2c-0.1-0.3-0.8-1.9-1-3.4c-0.1-0.5-0.1-0.9-0.1-1.3
		c0.1-0.9,0.4-1,1.4-1.1c0.6-0.1,1.4-0.2,2.4-0.6c0.6-0.2,0.9-0.5,1-0.9c0-0.1,0-0.3,0-0.4c-0.1-0.6-0.6-1.1-1.1-1.7
		c-0.4-0.4-0.8-0.9-0.9-1.2c0-0.1,0-0.2,0-0.2l0.7-0.7c0.8-0.9,1.9-2,1.6-3.8c0,0,0-0.1,0-0.1c-0.2-1-0.7-1.4-1-1.7
		c-0.2-0.2-0.3-0.3-0.4-0.5c0-0.2,0.1-0.6,0.4-1.4c0.6-1.3,1.1-1.5,1.5-1.7c0.5-0.2,0.9-0.4,1-1.4c0.2-1.9,0.3-6.7,0.3-6.7
		c0,0,0,0,0-0.1c0-0.1-0.1-0.2-0.2-0.2C512.3,131.3,512.1,131.4,512.1,131.5z M495.1,136.6C495.1,136.6,495.1,136.6,495.1,136.6
		C495.1,136.5,495.1,136.5,495.1,136.6C495.1,136.5,495.1,136.5,495.1,136.6z"/>
	<path class="st0" d="M529.9,85.3c-0.4-0.5-1.1-0.6-2.1-0.2c-2.2,0.8-2.8,2.2-3.4,3.3l-0.7,1.2c-0.9,1.2-1.6,2.9-1.8,4.5l-0.1,1.2
		c-0.1,1.3-0.1,2.7-1,3.5c-1.3,1.1-1.4,3.2-1.4,3.3c0,0,0,0.1,0,0.1c0.4,0.8,2.6,1.3,4.1,0.9c0.5-0.1,0.9,0.1,1.3,0.4
		c0.4,0.2,0.7,0.5,1.1,0.3c0.3-0.1,0.6-0.6,0.8-1.4c0.3-1.2,0.3-1.8,0.2-2.4c0-0.7,0-1.4,0.5-3.2c0.5-1.4,0.7-2.6,0.9-3.6
		c0.3-1.3,0.5-2.3,1-3.3C530.1,88.6,530.8,86.3,529.9,85.3z"/>
	<path class="st0" d="M527.6,110.7c-1.2-0.7-4.2,0.4-4.5,0.5c0,0,0,0-0.1,0c-0.1,0-1.3,1.1-1.4,3.4c0,0.7,0.2,1.2,0.5,1.4
		c0.7,0.5,1.9,0.1,3.3-0.3l0.6-0.2c0.8-0.3,1.5-0.3,2-0.3c0.9-0.1,1.7-0.1,2-1.1C530.5,112.6,528.7,111.3,527.6,110.7z"/>
	<path class="st0" d="M515.5,96.9c-0.6-0.2-1.5-0.2-2.4,0.8c-2.1,2.3-3.1,4.7-2.6,6.1c0.4,1.1,0.8,3,0.5,3.7c-0.2,0.5-1,0.7-1.3,0.7
		c0,0-1.7-0.5-2.7,0.4c-0.9,0.9-1.1,4.1-1.1,4.5c0,0.1,0.1,0.3,0.2,0.3c0,0,0.7,0.1,1.2,0.6c0.3,0.4,0.4,0.9,0.4,1.5
		c-0.2,2.2-0.1,5,0.2,6.4c0.2,0.7,0.4,1.9,1.5,2.4c0.9,0.5,2.3,0.3,4-0.6c1.7-0.8,2.7-1.9,3.2-3.2c0.3-0.8,0.3-1.6,0.2-2.5
		c-0.1-0.8-0.4-1.6-0.8-2.4l-1-1.8c-0.5-0.9-0.9-1.6-1-2.1c0-0.3,0-0.5,0.1-0.6c0.5-0.6,0.5-1.6,0.5-2.4c0,0,0-0.5,0-0.8
		c0.1,0.1,0.3,0.2,0.5,0.2c0.4,0,0.9-0.5,1.4-1.3c1.4-2.3,1.9-4.2,1.7-6.2C518.2,99.4,517,97.3,515.5,96.9z"/>
	<path class="st0" d="M523.2,137c-0.6-0.1-4.1-0.6-5.5,0.5c-0.4,0.3-0.6,0.7-0.6,1.1c-0.1,2-0.8,5.6-0.9,5.6c0,0.1,0,0.2,0.1,0.3
		c0.1,0.1,0.2,0,0.3-0.1c0,0,1.6-1.9,4.1-3.8c2.7-2,3-2.7,2.9-3.1C523.7,137.3,523.6,137,523.2,137z"/>
</g>
<g>
	<path class="st0" d="M388.9,124.2c0,0.1,0.6,2.5,2,2.8c0.8,0.2,1.6-0.3,2.4-1.5c2-2.7,2.9-3.2,3.3-3.2c0.1,0,0.3,0,0.4,0.5
		c0.1,0.3,0.1,0.9,0.2,1.7c0.1,2.4,0.2,6.4,2.9,8.4c2.4,1.8,4.8,0.3,6.7-1c1-0.6,1.9-1.2,2.6-1.3c1.9-0.1,2.4,1,3.4,3.3l0.3,0.6
		c0.2,0.5,0.7,0.9,1.5,1c3.2,0.6,10.2-2.6,12.2-4.6c1.7-1.7,0.7-3.3-0.1-4.7c-0.5-0.8-0.9-1.6-0.9-2.3c0-1.7-2.2-5.7-4.4-6.5
		c-1-0.3-1.9,0-2.6,0.9l-1.2,1.8c-0.6,1-0.6,1-2.8,0.8l-1.4-0.1c-2.1-0.2-3.9,0.4-5.3,0.9c-1.9,0.6-3.1,1-4.1-0.7
		c-0.3-0.5-0.4-1-0.3-1.3c0.2-0.8,1.4-1.3,2.7-1.8c1.4-0.6,2.9-1.3,3.8-2.5c0.5-0.6,0.7-1.2,0.5-1.6c-0.2-0.7-0.9-0.9-1.7-1.3
		c-0.9-0.3-1.8-0.7-1.9-1.5c-0.1-0.8,0.8-1.1,2.4-1.5c1.6-0.4,3.6-0.9,4.9-2.6c0.6-0.9,0.8-1.8,0.4-2.7c-1.1-2.3-5.4-3.8-9.2-4.1
		c-1.4-0.1-2.4,0.1-2.9,0.8c-0.8,1-0.3,2.7,0.1,4.2c0.3,0.9,0.5,1.7,0.4,2.2c0,0.3-0.2,0.4-0.3,0.4c-0.9,0.5-3.8-1-5.8-2l-1.1-0.5
		c-0.9-0.5-2-0.4-3.2,0.2c-2.2,1.2-3.9,4-4.2,7c-0.6,4.7,0,11,0.1,11.1C388.7,123.4,388.9,124.2,388.9,124.2z"/>
	<path class="st0" d="M445.2,82.6c0.9-0.2,1.9-0.7,2-1.3c0.2-0.9-1.5-3.2-1.9-3.7c0-0.1-0.1-0.1-0.2-0.1c-0.1,0-0.1,0-0.2,0.1
		c-0.4,0.3-2.8,2.9-1.9,4.4C443.5,82.5,444.2,82.8,445.2,82.6z"/>
	<path class="st0" d="M416.2,85.1c0.8-0.2,1.3-1.7,1.3-2.5c0.1-1.3-2-2-2.1-2c-0.1,0-0.3,0-0.3,0.2c-0.9,2.4-0.7,2.7,0.2,3.9
		C415.6,85.1,416,85.1,416.2,85.1z"/>
	<path class="st0" d="M409.2,91.5c0,0.1,0.1,0.2,0.2,0.2c0.1,0,0.2,0,0.3-0.1c0,0,0.8-1,1.8-1.1c0.4,0,0.9,0.1,1.3,0.4l1.6,1.5
		c1,1,1.7,1.7,2.3,1.6c0.2,0,0.5-0.2,0.7-0.7c0.3-0.8,0.2-2.5-0.6-3.2l-0.7-0.8c-0.6-0.7-1.3-1.6-2.6-2.1c-0.9-0.4-1.7-1-2.3-1.6
		c-0.7-0.6-1.3-1.1-1.8-1.1c-0.6,0-1.1,0.2-1.4,0.6c-0.3,0.4-0.3,1,0,1.8C408.5,88.5,409.2,91.5,409.2,91.5z"/>
	<path class="st0" d="M436.5,95.9c2.8-1.5,3.6-2.3,4.5-3.1l1-0.9c1.6-1.3,3.5-3.5,3.6-3.6c0.1-0.1,0.1-0.2,0-0.3
		c-0.1-0.1-0.2-0.1-0.3-0.1l-6.3,2.6c-1.3,0.6-2.1,0.5-2.8,0.5l-0.1,0c-0.7,0-2,0.7-2.6,1.3c-0.3,0.3-0.5,0.5-0.5,0.8
		c0,0.4-0.8,2.5-1.3,3.7c0,0.1,0,0.2,0,0.3C431.9,97.2,432.8,97.9,436.5,95.9z"/>
	<path class="st0" d="M424.4,107.3c0.5-0.2,1.4-0.9,0.9-3.7c-0.1-0.8-0.5-1.4-1-1.7c-0.5-0.3-1-0.4-1.6-0.3
		c-0.9,0.2-1.5,0.6-1.8,1.1c-0.3,0.6-0.2,1.5,0.4,2.5C422.2,106.7,423.5,107.6,424.4,107.3z"/>
	<path class="st0" d="M422.8,99.7c1.3,0.2,2.4-0.3,2.7-1.2c0.5-1.6-0.1-2.2-0.5-2.5c-0.9-0.5-2.4,0-3.4,1.1
		c-0.6,0.6-0.8,1.1-0.6,1.6C421.2,99.2,421.8,99.6,422.8,99.7z"/>
	<path class="st0" d="M435.3,113.9c1.7,0.3,2.8,0.1,3.2-0.6c0.5-0.8,0-2.1-0.5-2.9c-0.8-1.2-6.1-3.9-6.7-4.2c-0.1,0-0.2,0-0.2,0
		c-0.1,0-0.1,0.1-0.1,0.2C431,106.7,430.9,113.1,435.3,113.9z"/>
	<path class="st0" d="M409.2,146.4c0.9,3,3.5,8.1,3.5,8.1c0,0.1,0.1,0.1,0.3,0.1c0.1,0,0.2-0.1,0.2-0.2c1.5-5.3,3.3-11.2,3.8-11.6
		c0.9-0.5,0.3-3.3,0-4.1c0-0.1-0.1-0.1-0.1-0.2c-0.1,0-0.1,0-0.2,0l-4,1.7l0,0C410.3,141.2,408.3,143.5,409.2,146.4z"/>
	<path class="st0" d="M383.8,136.9c0.1,0,6.9,2.9,7.1,7.6c0.1,2.8,1.8,4.1,3.3,4.2c1.5,0.1,3.2-1.1,3.5-3.8c0.6-5-2.1-12.1-5.9-12.9
		c-3.7-0.7-6.8,0-7,0c-0.1,0-0.2,0.1-0.2,0.2l-1.1,4.4C383.6,136.7,383.7,136.8,383.8,136.9z"/>
	<path class="st0" d="M127.6,277.3c0.2,1.2,1,2.6,1.8,3.2c1.2,0.8,4.2,0.8,5.5,0.6c1.2-0.2,4,1.8,4.1,2.3c0.1,0.3,0.4,0.7,0.7,1
		c0.3,0.4,0.6,0.7,0.6,1c0,0.1,0,0.2,0,0.3c-0.1,0.2-0.2,0.5-0.1,0.7c0.1,0.5,0.5,1,0.9,1.3c0,0,0.2,0.4,0.2,0.4
		c0,0.1,0.1,0.1,0.2,0.1l7.2-0.1c0,0,0.1,0,0.1,0c0.7-0.4,2.4-1.5,2.3-2.2c0,0,0,0,0,0c0-0.2-0.2-0.4-0.7-0.5c0,0-5.2-1-6.6-1.3
		c2.4-0.9,4.9-1.6,5.2-1.6c0.4,0.1,2.5,0,3.1-0.8c0.1-0.2,0.2-0.4,0.1-0.7c0-0.2-0.2-0.5-0.5-0.8c-1.5-1.7-2.8-3.5-3-4.1
		c0.8-0.1,2.2-0.1,2.4,0.2c0.4,0.5,3.2,1.9,4.1,1.5c0.3-0.1,0.4-0.3,0.4-0.6l0.1-0.7c0.2-1.1,0.4-2.5-1.7-3.5
		c-1.9-0.8-2.8-2.5-3.4-3.5l-0.4-0.7c-0.3-0.4-1-0.7-1.8-0.8c-1.1-0.2-2.2,0.1-2.9,0.6c-0.5,0.4-0.9,1.1-1.2,1.8
		c-0.4,0.7-0.7,1.4-1.2,1.6c-0.2,0.1-0.5,0-0.9-0.1c-1.1-0.6-1.8-1.1-2.3-1.5c-0.5-0.4-0.8-0.6-1.1-0.6c-0.2,0-0.5,0.2-1.1,0.8
		c-0.9,0.8-2.1,2.1-2.8,1.5c-0.8-0.8-2.1-1-3.1-1c-0.9,0-1.7,0.3-2.1,0.7c-0.4,0.5-0.7,1.2-0.9,2.1c-0.2,0.8-0.5,1.6-0.9,2
		c-0.3,0.3-0.4,0.7-0.4,1.3C127.6,277.1,127.6,277.2,127.6,277.3z"/>
	<path class="st0" d="M162.9,265.6c0,0.1,0.1,0.1,0.2,0.1c0.1,0,0.1,0,0.2-0.1c3-3.1,8-8.4,8-9.1c0.2-0.2,1.9-0.9,3.1-1.3
		c2.4-0.9,3-1.2,3-1.5c0-0.2-0.1-1-0.4-2.8c-0.2-1.4-0.5-3.4-0.5-3.9c0.8,0.3,4.1,1.6,6.1,2.4c0.1,0,0.2,0,0.2,0
		c0.1,0,0.1-0.1,0.1-0.2c0.1-1,0.5-3.9,0.3-5.2c0-0.3-0.1-0.5-0.2-0.6c-0.4-0.4-2.4-3.4-3.9-5.6c1.6,1.1,6.6,4.6,6.6,4.6
		c0.2,0.1,4.3,1.6,5.7,1.1c1.4-0.5,5.1-4.7,5.5-5.1c0.1-0.1,0.1-0.1,0.1-0.2c0,0,0-0.1-0.1-0.1c0,0-2.3-2.7-2.8-3.3
		c8.1-0.6,8.3-1.1,8.4-1.3c0.1-0.2,0-0.7-0.1-1.5c-0.1-1.3-0.4-3.1-0.1-4.8c0.2-0.9,0.3-2,0.2-2.9c-0.1-0.5-0.2-0.9-0.5-1.2
		c-0.4-0.4-1-0.6-1.9-0.5c-1.8,0.2-3.3,0-3.7-0.3c0.6-0.4,7.3-4.4,7.3-4.4c0.1,0,0.1-0.1,0.1-0.2c-0.2-2.2-0.4-4.6-0.3-5.2
		c0.2,0.1,0.3,0.2,0.3,0.2c1.3,0.8,4.5,2.6,6.7,0.6l1.1-1c3.5-3,4.7-4.1,4.4-4.7c0-0.1-0.2-0.3-0.5-0.3c-0.6,0-1.7,0.4-3,0.8
		c-1.7,0.6-3.7,1.3-4.9,1.1c-0.6-0.1-0.9-0.4-1.1-0.8c-0.4-0.8-0.1-2,0.2-2.5c0.1-0.2,1.3-1,2.4-1.6c2-1.2,4.3-2.6,4.8-3.6
		c0.5-1,0.7-2.1,0.9-3l0.3-1.3c0.2-0.7,0-1.9-0.2-3.1c-0.1-0.8-0.3-1.8-0.2-2.1l1-1.6c1.6-2.4,1.9-3,1.8-3.3l-2.2-5.8l-1.7-3.6
		l-1.5-2.8c0-0.1-0.1-0.1-0.2-0.1c-0.1,0-0.1,0-0.2,0c-0.7,0.5-17.1,11.6-18.7,14.5c-1.7,3-3.8,5.7-7.2,5.6
		c-3.8-0.1-8.1,3.7-9.6,6.4c-0.8,1.5,0.1,2.5,1.2,3.6c1.1,1.2,2.5,2.7,2.6,5.2c0.1,2.3-0.3,2.6-0.4,2.7c-0.2,0.1-0.8-0.5-1.2-0.9
		l-0.5-0.5c-0.6-0.5-3.2-3.9-4.4-5.6c-0.1-0.1-0.2-0.1-0.3-0.1c-0.1,0-0.2,0.1-0.2,0.3c0,0.1,0.3,6.7-0.1,9c0,0.3-0.1,0.4-0.3,0.5
		c-0.6,0.2-2.3-1.5-3.3-2.7c-0.3-1.3-1.7-7.4-2.9-8c-0.2-0.1-0.3-0.1-0.4,0c-0.3,0.1-0.9,0.1-1.6,0.1c-1.6-0.1-3.8-0.1-4,1.8
		c-0.1,0.9,0,1.9,0.2,2.7c0.2,1.3,0.3,2.5-0.4,3.2c-1.3,1.2-3,4.2-2.9,6.6c0,0.3,0.1,0.7,0.1,1c0.3,2,1.4,3.9,2.7,4.7
		c1.5,0.9,5.2,2.5,5.9,2.7c0.2,0,0.4,0.5,0.5,1.1c0,0.1,0,0.2,0,0.3c-1,0.3-7,2.1-7.9,4.7c-0.3,0.8-0.3,1.6-0.2,2.2
		c0.1,0.7,0.4,1.2,0.6,1.5c0.5,0.7,1.3,1.2,2,1.3c0.7,0,3.3,0.8,5.2,1.4c1.7,0.5,2.6,0.8,2.9,0.8c0.4,0,2.4,1.6,2.9,2.1
		c-1.1,1.2-2.4,2.3-2.7,2.1c-0.9-0.7-3.6-0.1-4-0.1c-0.1,0-0.2,0.1-0.2,0.2c0,1.9-0.2,3.6-0.5,3.8c-0.7,0-4,3.1-5.5,4.6
		c-0.2,0-5.3,0.3-5.3,0.3c-0.1,0-0.2,0.1-0.2,0.1c0,0.1,0,0.2,0,0.3L162.9,265.6z"/>
	<path class="st0" d="M145.4,299.5c0.2-0.3,0.1-0.5,0-0.6l-0.5-1.1c-0.6-1.3-1.5-3.3-2.4-4.1c-1.2-1-4.7-2.8-4.8-2.9
		c-0.1,0-0.1,0-0.2,0l-3.5,1.4c-0.1,0-0.2,0.2-0.2,0.3l1,6c0,0.1,0.1,0.2,0.2,0.2c1.5,0.2,2.8,0.5,3,0.8c0.2,0.6,2.4,2.4,3.3,2.3
		C142.1,301.8,144.9,300.5,145.4,299.5z"/>
	<path class="st0" d="M135.4,301.2c0.4,0.6,1.8,2.1,6.6,7c0.1,0.1,0.1,0.1,0.2,0.1l2.2,0c0.1,0,0.2-0.1,0.2-0.2c0-0.1,0-0.2-0.1-0.3
		l-4.5-3.1l-4.3-3.9c-0.1-0.1-0.1-0.1-0.2-0.1c-0.1,0-0.1,0.1-0.2,0.1c0,0,0,0.1,0,0.1C135.3,301,135.3,301.1,135.4,301.2
		C135.4,301.2,135.4,301.2,135.4,301.2L135.4,301.2z"/>
	<path class="st0" d="M141.6,320.8l1.1-3.1l2.1-3.8c0-0.1,0-0.2,0-0.2l-1.5-3.6c0-0.1-0.1-0.1-0.1-0.1c-1.1-0.5-4.1-2-4.6-2.5
		l-1.8-1.5c-0.8-0.6-1.7-1.4-1.9-1.6c-0.1-0.1-0.3-0.2-0.4-0.1c-0.2,0.1-0.6,0.2-0.7,5.9l-1.6,3.9c-0.7,1.8-1.7,4.7-1.8,4.9
		c0,0,0,0.1,0,0.2c0.1,1.3,0.5,4.7,0.5,5.1l0.3,7.8c0,0.5,1.8,1.8,5.3,3.9c0.1,0.1,0.3,0,0.3-0.1c0,0,1.1-1.4,1.3-1.7
		c0.3,0.2,3,1.6,3,1.6c0.1,0,0.2,0,0.2,0c0.3-0.1,1.6-0.8,1.7-1.5c0-0.1,0-0.1,0-0.2c0-0.1-0.1-0.3-0.2-0.4c0,0-2.7-2.6-3.6-3.6
		c2-0.4,2-0.7,2.1-0.9c0-0.4-0.7-5.2-0.8-5.7c0,0,0,0,0,0c0,0,0-0.1,0-0.1c0,0-1.4-2-1.9-2.7c0.8,0.2,2.8,0.6,2.8,0.6
		C141.5,321,141.6,320.9,141.6,320.8z"/>
	<path class="st0" d="M119.4,356.5c0.7,2.2,3.2,3.9,3.3,4c0.1,0.1,0.2,0.1,0.3,0c0.1-0.1,0.1-0.2,0.1-0.3c0,0-1.3-4.2,0.3-5.4l1.6-1
		c1-0.6,2.1-1.2,3.5-2.9c2-2.7,2.6-3.8,2.5-4.8c0,0,0-0.2,0-0.2c-0.5-3.5-0.1-4,0-4c0.3-0.1,0.3-0.2,0.3-0.3c0-0.2,0-0.5-3-1.1
		c-0.1,0-0.2,0-0.3,0.1c0,0-0.9,1.9-0.9,2c-1,0.6-3.9,4.2-5.4,6.9l-0.7,1.3c-1.1,2-2,3.5-1.7,5.2
		C119.3,356.1,119.4,356.3,119.4,356.5z"/>
	<path class="st0" d="M217.6,305.4l0.1,2.5l0,1.5c0,1.1-0.1,2.1,0.1,2.8c0.1,0.5,0.2,0.8,0.4,1c0.2,0.2,0.4,0.2,0.6,0.2
		c0.8-0.1,1.9-0.6,2.4-1.4c0.4-0.6,0.5-1.4,0.2-2.3c-0.7-2.3-0.9-4-0.7-6.4c0.1-2.5,0.7-7.9,0.7-7.9c0-0.1-0.1-0.2-0.2-0.3
		c-0.1,0-0.2,0-0.3,0.1c0,0-1.7,3.9-1.7,3.9c-0.1,0.2-1.6,3.3-1.7,4.4L217.6,305.4z"/>
	<path class="st0" d="M218.1,316.3c-1.9-0.4-4.5-1.3-4.8-1.9c-0.1-0.1-0.1-0.3-0.1-0.4c-0.1-0.5,0-1.1,0-1.8l0.1-1.7
		c0-0.1,0-0.2,0-0.3c-0.2-1.4-1.3-4.6-1.4-5c0.1-0.5,1.1-5.1,1.1-6.6c0-1.6-0.1-10-0.1-10.1c0,0-1.2-8.7-1.2-8.7c0,0,0-0.1,0-0.1
		l-8.5-11.2c0-0.1-0.1-0.1-0.2-0.1c-0.1,0-0.1,0-0.2,0.1l-6.5,5.7c-0.1,0.1-0.1,0.1-0.1,0.2c0,0,1.8,6.6,1.8,6.6l0.3,5.2
		c0,0,0.2,4.1,0.2,4.5c-0.4,0.1-4.5,0.6-4.7,0.6c-0.2-0.2-5-5.8-5-5.8l-5.2-7c0-0.1-0.1-0.1-0.2-0.1c-0.1,0-0.2,0-0.2,0.1l-1.3,2
		c0,0.1,0,0.1,0,0.2c0,0,0,0,0,0l1.9,6.3l0.4,4.4c-0.2,0.8-1.4,4.6-1.6,6.1c-1.1-1.3-4.2-5.8-6.2-8.7c-0.1-0.1-0.2-0.1-0.3-0.1
		c-0.1,0-0.2,0.1-0.2,0.2c0,0-0.3,4.5-0.3,4.7c-0.1,0.1-3,3.4-3,3.4c-0.1,0.1-0.1,0.1-0.1,0.2c0,0,0,0.1,0,0.1
		c0.1,0.2,1.5,2.2,2.5,2.5c0.5,0.2,1.4,3,1.9,5.4c0,0.1,0.1,0.1,0.1,0.2l7.2,4.2c0.1,0,0.1,0,0.2,0c0.1,0,0.1-0.1,0.2-0.1
		c0,0,1.8-4.5,2-4.8c0.4,0.1,4.1,1.1,4.3,1.1c0.1,0.1,3.1,4,3.4,4.3c-0.3,0.3-3.6,3.3-3.6,3.3c-0.1,0.1-0.1,0.1-0.1,0.2c0,0,0,0,0,0
		c0.1,0.3,2.3,7,4,8.2c1.2,0.8,2.1,1.2,2.5,1.4c-0.2,0.4-1.2,2.3-1.2,2.3c0,0.1,0,0.1,0,0.2c0,0,0,0.1,0,0.1
		c0.1,0.1,0.6,0.7,4.2,2.3c2.1,0.9,2.3,1.4,2.3,1.5c0.1,0.3,0.3,0.3,0.9,0.4c1.5,0,3.6,1.8,3.6,1.8c0.1,0.1,0.2,0.1,0.3,0
		c0,0,3.7-2.5,4.1-2.8c0.2,0.5,3.5,6.5,3.5,6.5c0,0.1,0.1,0.1,0.2,0.1c0.1,0,0.2-0.1,0.2-0.1c0,0,3.1-7,3.4-7.6
		c0.5,0.4,1.8,1.6,2.6,3.1c0.9,1.6,4.2,1.1,6,0.7c-1.1,0.8-3,2.2-5.8,4c-3.6,2.3-4,4.4-3.5,7.1c0.1,0.8,0.3,1.6,0.6,2.6l0.1,0.2
		c0.3,1.4,0.8,2.1,1.5,2.3c1.3,0.3,3.1-1.5,5.7-4.4l0.5-0.5c1.8-1.9,3.3-3,4.5-3.8c1.5-1,2.5-1.7,2.9-3.3c0.6-2.6,3-4.2,6.1-6.2
		l0.7-0.5c1.2-0.8,1.8-1.8,1.9-2.9c0.1-2-1.7-4.1-3.2-5.4c-2.7-2.3-7.1,0.9-7.5,1.2c-1.3,0.4-3.6,0.9-4.2,0.5
		c-0.1,0-0.1-0.1-0.1-0.1c-0.1-0.7,0.1-2.2,0.2-3.5l0.1-1.8c0-1.2-4.4-3.5-5.8-4.2c-0.1,0-0.2,0-0.3,0
		C221.4,313.6,218.3,316.2,218.1,316.3z"/>
	<path class="st0" d="M202.7,346.1c-2.1-1.8-5.1-1.9-5.2-1.9c-0.1,0-0.1,0-0.2,0.1l-0.2,0.1c-2.3,1.7-3.7,3.2-4,4.6
		c-0.4,1.5-0.2,5.6,1.6,7.8c0.7,0.9,1.5,1.3,2.5,1.3c3.7,0,6.3-2.5,6.4-6.1l0.3-2.5C204,348.2,204.2,347.4,202.7,346.1z"/>
	<path class="st0" d="M210.7,358.5c-1.1-0.1-1.9,0.7-2,0.8c-0.8,0.5-3.8,3.7-3.5,5.3c0,0,0,0.1,0,0.1c0.3,1.1,1.4,2.7,2.7,2.9
		c0.6,0.1,1.4-0.1,2.2-1.3l1.2-1.9c1.2-1.7,2.2-3.1,1-4.8C211.9,358.9,211.4,358.5,210.7,358.5z"/>
	<path class="st0" d="M186.3,391.9l0.7-1c1.8-2.5,2.7-3.6,2.4-4.3c-0.1-0.3-0.4-0.4-0.8-0.5c-1.5-0.2-5.4,1.6-5.6,1.6c0,0,0,0-0.1,0
		l-8.8,7.1c-0.1,0-1.8,1.3-1.8,2.6c0,0.6,0.3,1.1,0.9,1.5C175.8,400.6,183.7,395.5,186.3,391.9z"/>
	<path class="st0" d="M166.2,402.2c-0.3,0-0.8,0.3-1.6,0.9c-1.3,0.9-3,2.2-4.6,2.1l-1.3-0.1c-2.7-0.2-6.7-0.4-7.8,1.2
		c-0.4,0.6-0.3,1.4,0.2,2.4c1.2,2.3,3.1,5.1,5.5,5.3c1.3,0.2,2.7-0.5,3.9-1.9c1.6-1.8,3.2-2.8,4.8-3.7c1.6-1,3.2-1.9,4.3-3.7
		c0.6-1,0.7-1.7,0.4-2.2C169.2,401.5,166.6,402.1,166.2,402.2z"/>
	<path class="st0" d="M237.2,423.5c0.3-0.9,1.7-5.2,1.1-6.2c-0.6-1-5.3-5.4-6.8-6.3c-1.4-0.9-7.6-2.9-9.7-3.6
		c-0.9-0.3-1.2-1-1.5-2.2c-0.3-1.1-0.8-2.6-2-4.4l-1.6-2.3c-2.1-3.2-4-5.9-5.6-5.9c-1.9,0-11.4,2.9-13.3,3.9
		c-0.3,0.1-0.5,0.3-0.5,0.6c-0.1,0.5,0.3,1.1,0.7,1.6c0.4,0.6,0.9,1.3,0.8,1.8c-0.1,0.3-0.3,0.5-0.7,0.8c-0.7,0.4-1,0.8-1,1.2
		c0,0.6,0.9,1.1,2.2,1.7c1,0.5,2.2,1,3.3,1.8c2.5,1.8,3.7,3.8,4.6,5.2l0.6,0.9c0.8,1.1,4.2,0.1,6.3-0.7c-1.4,1.2-3.8,3.2-4.7,4.2
		l-1.3,1.2c-2.1,1.9-5.3,4.7-5.1,6.6c0,0,0,0.1,0,0.1c0.1,0.4,0.3,0.8,0.8,1c2.2,1.3,7,1.3,9.3,1.2c-3,1.4-10.7,4.9-12.9,5
		c-1.1,0-2.4-0.8-3.6-1.6c-1.3-0.9-2.5-1.6-3.5-1.4c-0.4,0.1-0.7,0.4-0.9,0.9c-0.7,1.6-1,4.1-0.1,6.1c0.6,1.2,1.6,2,2.9,2.3
		c2.1,0.5,3.4-0.1,4.8-0.7c1.1-0.5,2.2-1,3.9-1c1.3,0,2.7,0.3,4,0.6c2.7,0.6,5.4,1.3,7.5-0.7c2.2-2.2,7-4.4,9.1-5.3
		c0.2-0.1,0.4-0.2,0.5-0.2c0,0.6,0.2,3.3,0.2,3.3c0,0.1,0.1,0.1,0.1,0.2c0.1,0,0.2,0,0.2,0l9.9-5.8c0.1,0,0.1-0.1,0.1-0.2
		c0,0,0,0,0-0.1c0-0.1,0-0.1-0.1-0.1c0,0-2.2-1.8-2.8-2.4c0.9-0.1,4.4-0.5,4.4-0.5C237.1,423.7,237.1,423.6,237.2,423.5z"/>
	<path class="st0" d="M197.9,465.5c0,0.7,0.2,1.1,0.5,1.2c1.2,0.4,4.2-3.5,5.1-4.7c0.1-0.2,2.7-4.2,2.7-6.1c0-0.5-0.2-0.7-0.4-0.8
		c-1.1-0.6-4,1-4.3,1.1c0,0,0,0,0,0C200.7,456.5,198,462,197.9,465.5z"/>
	<path class="st0" d="M192.9,508.5c-1.3,0.9-2.8,1.9-2.4,4.7c0.1,0.4,0.2,0.9,0.3,1.3c0.4,1.3,1,2.1,1.7,2.2c1.2,0.2,2.3-1.4,3.5-3
		c0.8-1.1,1.7-2.3,2.2-2.3l0.7,0c2.8-0.1,9.3-0.3,10.9-4.5c1.7-4.4,1.9-5.9,0.5-9l-1.1-2.3c-1.2-2.3-2.6-5.2-2.5-6.1
		c0.2-1.3,0.5-13.7,0.5-14.2c0-0.1,0-0.2-0.1-0.2c-0.1,0-0.2-0.1-0.3,0l-12.3,6.9c0,0-0.1,0.1-0.1,0.1c0,0-1.3,2.6-1.7,3.4
		c-0.3-0.9-1.4-4.4-1.4-4.4c0-0.1-0.1-0.1-0.2-0.2c-0.1,0-0.2,0-0.2,0.1c-2.1,2.1-5.8,5.3-6.8,5.2l-0.5,0.1
		c-0.6,0.5-0.9,2.4-1.1,5.3c-0.1,1.5-0.3,3.4-0.6,3.6c-0.8,0.8-1.6,8.7-1.8,10.3c0,0.1,0,0.2,0.1,0.2c0.1,0,0.2,0,0.3,0
		c0.3-0.2,7.9-5.2,8.4-8.6c0.5-2.8,2-3.9,2.4-4.2c0.2,0.1,3.8,1.5,4.6,1.8c-1,0.6-3.4,2.3-3,4.6c0,0.1,0,0.2,0.1,0.3
		c0.3,1.1,0.6,1.8,0.9,2.5c0.3,0.7,0.5,1.3,0.7,2.1c0.1,0.5,0.1,1.1,0.1,1.9C194.6,507.3,193.8,507.8,192.9,508.5z"/>
	<path class="st0" d="M216.9,492.5c0.1,0,0.2-0.1,0.2-0.2c0-0.1,1.1-5.8,2.8-7.8c1.2-1.3,1.4-2.4,1.8-3.7c0.2-0.8,0.4-1.6,0.8-2.7
		c1.2-3.1,4-7.1,4.6-8c0.3-0.4,0.9-1.5,1.7-3c1.3-2.4,3.1-5.8,4.6-7.9c1.8-2.4,1.8-3.6,1.8-4.6l0.1-1.2c0.4-1.6,1.2-9.9,1.2-10.2
		c0-0.1-0.1-0.2-0.2-0.3c-0.1,0-0.3,0-0.3,0.2l-1.7,4.4c0,0-2.6,4.7-2.6,4.8c-0.1,0.1-11.8,8-11.8,8c0,0-0.1,0-0.1,0.1l-4.7,8.3
		c0,0-0.6,4-0.6,4.2c-0.3,0.5-1.2,1.7-1.8,2.1c-0.9,0.5-1.6,2.2-2,5.1c-0.3,2.4-0.7,7-0.2,9.9c0.1,0.6,0.3,1.2,0.5,1.6
		C212.2,494,216.7,492.6,216.9,492.5z"/>
	<path class="st0" d="M273.9,500.6c0.8,1.7,2,2.1,2,2.1c0.1,0,0.1,0,0.2,0c0.1,0,1.9-0.9,2-3.8c0.1-2.7-1.2-7.3-3.5-10.4
		c-2.1-2.8-5.7-6.3-5.7-6.3c-0.1-0.1-0.1-0.1-0.2-0.1c-0.1,0-0.2,0.1-0.2,0.2l-0.7,1.8c0,0,0,0,0,0c-0.1,0.6,0.2,6.8,1.5,8.8
		C270.6,495.2,273.1,499.1,273.9,500.6z"/>
	<path class="st0" d="M263.4,504.3c-2-0.3-5.1,0.7-5.2,0.8c0,0-0.1,0-0.1,0.1l-0.3,0.4c-1.7,1.7-5.6,5.8-4.9,10.1l0.9,4.8
		c0.5,2.2,0.9,3.9,0.7,5c-0.4,1.8,0.3,9,2.7,10.8c1.8,1.3,8.6,2.5,12.1,1.3c1.2-0.4,1.9-1,2.2-1.9c0.5-1.6,0.4-3.2,0.2-4.6
		c-0.3-1.6-0.7-2.7-0.8-3c0.1-0.2,1.9-5.4,1.9-5.4c0,0,0-0.1,0-0.1c0-0.1,0-0.1-0.1-0.1c-1.4-1.4-3-3.1-3.1-3.4l0.1-0.4
		c0.2-0.5,0.5-1.4,0.1-3.6c-0.1-0.8-0.4-1.9-0.7-3.1C267.2,506,265.5,504.6,263.4,504.3z"/>
	<path class="st0" d="M298.9,792.2c2-0.4,2.6-0.7,4.8,3.2c2.1,4,8.1,9.5,10,9.6c1.5,0.1,4-2.6,7.6-6.4c3.6-3.7,6.4-5.6,9.6-7.1
		c3.1-1.5,4.7-6.9,2-6.5c-2.7,0.4-4.4,6-7.2,1.8c-2.8-4.2-4.3-12.3-7.4-13.5c-3.1-1.2-7.7-4.8-13.2,0.3c-5.5,5.1-3.3,11.6-6.5,11.6
		c-3.2,0-7-2.1-6.3,0.1C293,787.6,296.9,792.7,298.9,792.2z"/>
	<path class="st0" d="M213.4,684c0.4-2.3,0.6-4.8,0.7-6.9c0.2-2.6,0.3-5.3,1-6c0.4-0.3,2.8-0.1,4.7,0c4.8,0.4,11.5,0.9,14.3-2.3
		c2.2-2.5,2.9-5.2,1.8-7.1c-0.9-1.6-2.8-2.2-5.1-1.7c-1.7,0.4-3,0.1-3.6-0.9c-0.2-0.3-0.3-0.5-0.3-0.9c-0.2-0.9,0.2-2.1,1-3.3
		c1.7-2.5,1.8-5.1,1.3-8.5c-0.2-1.4-0.6-3-1-4.7l-0.2-1c-0.7-3-1.5-4.8-2-5.9c-0.1-0.3-0.2-0.5-0.3-0.7c0.1,0,0.2,0,0.2,0
		c1.9-0.1,6,2.8,8.4,6.8c0.7,1.1,1.1,2.4,1.3,3.9c0.3,2,0.3,4.1,0.3,6.1c0,1.8,0,3.4,0.2,4.9c0,0.1,0,0.1,0,0.2
		c0.4,2.7,2.3,3.7,3.7,3.7c1.5,0,2.8-0.9,3.1-2.3c0.1-0.4,1.7-9.5-0.8-15.1c-2-4.6-4-11.2-4-15.9c0-1.7-0.2-2.8-0.9-3.4
		c-0.8-0.7-1.9-0.7-3.8-0.6l-4.1,0.1c-4.9-0.1-9.2,1.2-12.9,3.9c-1.2,0.9-2.4,2-3.5,3.2c-0.4,0.5-0.7,0.7-0.9,0.8
		c0-0.7,0.3-2.5,0.5-3.9c0.3-1.7,0.7-3.7,0.8-5.3c0.2-2.7,3.9-3.8,7.8-5c2.7-0.8,5.4-1.6,7.4-3c0.9-0.7,1.4-1.5,1.5-2.5
		c0-0.3,0-0.6,0-0.8c-0.4-2.6-3.5-5.5-6.4-8.3c-1.6-1.5-3.1-2.9-3.9-4.1c-2.8-4-7.9-14.6-8.3-16.6c0-0.1,0-0.1,0-0.2
		c0-0.1,0-0.2,0-0.3c-0.1-0.9-0.9-1.5-1.6-2.2c-0.9-0.8-2-1.8-2.3-3.3c0-0.1,0-0.2-0.1-0.3c-0.3-1.9-0.1-4.8,0-7.4
		c0.1-1.7,0.2-3.3,0.2-4.6c0-0.2,0-0.3,0-0.4c-0.6-3.5-6.6-5.4-10-5.4c-3.3-0.1-5.5-1-6.1-1.8c-0.6-0.9-2.7-1.1-6.4-1.2
		c-1.5,0-3-0.1-4.1-0.2c-3-0.4-7.6-0.8-11.6,0.8c0,0-2,1-2,1l-2.3,1.5c-2.5,1.7-4.2,2.9-12.1,3.3c-3,0.1-4.8-0.2-6-0.4
		c-1-0.2-1.6-0.3-2.1,0.1c-0.6,0.5-0.6,1.2-0.6,3.3l0,2.1c0,1-0.5,2.6-3,6.7c-1.8,3-9.8,2.5-13,2.1c-0.3-0.3-1.9-2.3-1.9-2.3
		c-0.2-0.2-0.5-0.3-0.8-0.2l-7.5,3.7c-0.1,0.1-0.2,0.2-0.3,0.3c0,0-1.8,4.2-2.5,5.3c-0.7,1.2-2.2,7.4-2.2,7.5
		c-0.6,1.8-1.9,5.6-2.2,6.2c-0.3,0.7-2.7,4-3.4,4.9l-0.6,0.6c-1.5,1.5-2.7,2.9-2.5,4c0,0,0,0.1,0,0.1c0,0,0,0.1,0,0.1
		c0.1,0.8,0,2.6-0.1,4c-1,0-7.7-0.2-7.7-0.2c-0.2,0-0.3,0.1-0.4,0.2c0,0-5.1,4.4-5.8,4.9c-0.7-0.5-6-4.5-6-4.5
		c-0.1-0.1-0.3-0.1-0.5-0.1l0,0c-0.2,0-0.3,0.1-0.4,0.3l-4.1,6c-0.1,0.1-0.1,0.3-0.1,0.5c0,0.2,0.1,0.3,0.2,0.4l6.9,5.4
		c0.1,0,0.1,0.1,0.2,0.1c0,0,3.6,1.1,5.1,1.6c-1.4,1.2-8.4,7.3-8.7,7.6c-0.5,0-9.8-0.2-9.8-0.2c-0.2,0-0.3,0.1-0.4,0.2l-5.2,4.8
		c-1.8,1.7-6.8,2.5-6.9,2.5c-0.2,0-0.4,0.2-0.5,0.4c-0.1,0.1-0.1,0.2,0,0.4c0,0.1,0,0.2,0.1,0.2l8.1,12.8l4,5.9
		c0.1,0.1,0.1,0.1,0.2,0.2c0,0,5.4,3.2,6,3.5c0,0.7,0.2,9.5,0.2,9.5c0,0,0,0.1,0,0.1c0,0.3,0.2,0.5,0.5,0.5c0.8,0.2,7.9,1.6,9,1.7
		c0.9,0,5.6,2.7,6,3.5c0.5,1,3.6,5.2,4.6,5.8c0.9,0.5,4.7,0.6,6.4,0.6c0.2,0,0.4-0.1,0.6-0.3c0.7-1.3,1.5-2.5,1.9-2.7
		c0.8,0.4,3.7,2.8,6.3,5.1c0.1,0.1,0.4,0.2,0.6,0.1c0.2,0,0.4-0.2,0.4-0.4c0,0,1.9-4.1,2.1-4.5c1-0.5,3.5-1.8,3.7-3.2
		c0.1-0.9,0.7-2.6,0.9-3.2c0.6-0.2,7.1-2.1,7.1-2.1c0.2-0.1,0.3-0.2,0.4-0.3c0.1-0.1,0.1-0.2,0-0.4c0-0.1,0-0.1-0.1-0.2
		c0,0-3.1-6.5-3.2-6.9c0.1-0.4,1-4.6,1.1-5.3c0.7-0.1,4.4-0.9,4.4-0.9c0.2,0,0.3-0.1,0.4-0.3c0,0,3.8-5.4,4.3-6.1
		c0.9,0.4,9,4.4,9.6,4.6c0.1,0.6,0.9,8,0.9,8l0.6,7.5c0,0,0,0,0,0.1c0,0.1,0.1,0.2,0.1,0.3l5.7,6.8c0.1,0.2,0.4,0.3,0.6,0.2
		c0,0,4.3-0.7,5-0.8c0.3,0.5,1.6,2.5,1.9,3c-0.2,0.5-1.9,5.2-1.9,5.2c0,0.1,0,0.2,0,0.3c0,0,1.4,6.6,1.4,6.6c0,0.2,0.2,0.4,0.4,0.5
		l3.3,1.1c0.1,0.1,0.3,0,0.4,0c0,0,5.5-2.1,6.1-2.3c0.4,0.3,2.1,1.7,2.1,1.7c0.1,0.1,0.3,0.2,0.5,0.1l5.6-0.7c0.3,0,0.5-0.2,0.5-0.5
		c0,0,0.9-3.5,1.2-4.4c0.8,0.2,5.3,1,5.5,1.1c0.1,0.1,0.7,0.4,0.7,0.4c0.3,0.1,0.6,0.1,0.8-0.1c0.1-0.2,0.2-0.3,0.2-0.5
		c0-0.1,0-0.2-0.1-0.3c0,0-0.5-0.8-1-1.6c1.7,0.3,4.7,1.1,6.7,3.6c4,4.9,8.1,3.5,9.7,2.7l1.2-0.5C206.9,691.7,212.4,689.2,213.4,684
		z"/>
	<path class="st0" d="M739.2,840.1c-1.7-2.6-18.2-12.1-22.7-15.2c-4.5-3.1-9.4-4.9-16.8-5.3c-7.3-0.5-10,0.7-11.5,0.7
		c-1.4,0-12.6-0.5-16.5-0.6c-4-0.1-2.6,0.7-9.1,0.6c-6.5-0.2-9.9,6.9-10.3,11.1c-0.4,4.1-4.3,12.8-4.3,12.8s-3.1-2.8-8.2-2.1
		c-1.1,0.1-2,0-2.8-0.3c-3-1.2-4.2-5.1-6.1-7.9c-2.3-3.6-9.8-2.3-9.8-2.3s8.3-12.1,9.9-15.1c1.7-3,11.3-7.7,12.1-11.5
		c0.7-3.8-0.3-13.7-2.7-18.9c-2.4-5.2-9.9-19.5-10.8-20.7c-0.9-1.1-2.3-3.4-5.3-4.3c-3-0.9-3.8-3-6.7-5.7l0,0c-3-2.8-5.5-2.7-8-4.3
		c-2.5-1.7-5.8-5.9-8.2-9c-0.1-0.2-0.2-0.3-0.4-0.4c-2.3-2.5-4.6-0.9-7.9-2.2c-3.5-1.4-5.7-1.4-8.6,0.3c-2.9,1.7-5.7,0.5-9-2.1
		c-2-1.6-4.7-0.5-6.7,0.6l-0.5,0.3c-1,0.6-1.6,1.2-1.6,1.2s2.2-4.1,5.4-4.7c3.2-0.6,7.5,1.1,12.5,1.3l0.6,0c4.7,0.1,6.3-0.1,7.4-1.7
		c0.7-1,4.1,0.3,7.3,2c2.4,1.2,4.6,2.7,5.4,3.4c1.7,1.8,4.5,3.8,5.8,4.8c1.3,1,7.5-0.1,9.1-0.1c1.6,0,6.6,1.9,6.6,1.9l-5.7-12.7
		c0,0-9.4-11.2-14.8-18.1c-5.4-6.8-5-15.4-5.1-20.8c0-5.4,6.2-4.2,6.2-4.2s0.9-2.7-0.1-3.8c-0.9-1.1-7.3-2.1-9.5-2.6
		c-0.3-0.1-0.5-0.2-0.8-0.4c-1.5-1.4-1.6-5.4-1.6-5.4s-1,0-5.2-2.7c-4.2-2.7-3.2-6.5-3.2-6.5s-3.9-9.2-5.6-11.1
		c-1.7-2-4-7.3-4.7-9.4c-0.7-2.1-7.1-2.7-9-4.2c-1.9-1.5-4.8-6-6.4-6.7c-0.3-0.1-0.9-0.3-1.6-0.5c-3.1-0.7-9.4-1.9-13.7-4.1
		c-5.3-2.7-8.9-2.4-10.9-3.1c-0.1,0-0.1,0-0.2-0.1l-3.2,5.6l0.3-0.6l2.8-5c-0.8-0.4-1.4-1.4-1.7-2.4c-0.5-1.5-0.7-3-0.7-3
		s-1.5-2.6-3.6-3.9c-1-0.6-2.2-2.1-3.3-4c-1.3-2.2-2.3-4.9-2.5-7.5c-0.2-2.2-0.8-4-1.4-5.5c-0.8-1.8-1.5-3.3-1.6-5.1
		c-0.2-3.4-3.4-9-5-11.3c-1.3-1.9-2.3-5.4-2.9-8.4c-0.1-0.6-0.2-1.2-0.3-1.7c-0.6-3.2-3-6.8-3.6-8.7c-0.6-1.9-4.3-5.8-3.1-12
		c1.3-6.2,0.3-7.5-0.4-9.7c-0.7-2.2-3.1-5.5-0.3-7.2c2.7-1.7-1.8-7-3.7-14.4c-1.9-7.4-3.7-8.1-7.7-8.9c-4-0.7-6.2-2.5-8.4-5.5
		c-1.5-2-6.9-10.5-11.1-17.2l0.1-0.1c0-0.1,0.1-0.1,0-0.2c0,0,0-0.1,0-0.1c-2.4-3.8-3.9-6.4-4.6-7.6c-2.3-4.2-3.2-5-5.7-5
		c-2.5-0.1-7-0.5-9.3-1.5c-0.5-0.2-0.9-0.5-1.2-0.9c0,0,0,0,0,0l-0.6-1c-0.4-0.9-0.9-1.8-2.4-1.9c-2.9-0.1-7.4-1.5-11.5-5.3
		c-3-2.8-7.8-4.6-11.8-4.4c-2.7,0.1-5,1.1-6.5,2.9l-1.4,1.6c-3.4,4-5.5,6.3-12.3,7.6c-0.9,0.2-1.8,0.3-2.7,0.3
		c-4.1,0.1-7.1-1.5-10.2-3.1c-1.3-0.7-2.7-1.4-4.2-2c-2.1-0.8-4.5-1.4-7.6-1.7l-3.9-0.3l-2.8-0.2c0,0,0,0,0,0c0,0,0,0,0,0l-4.6-0.5
		c-5.8-0.8-8.6-4.1-9.5-5.3c0.1,0,0.2,0.1,0.2,0.1c2.7,0.6,9.1,2,10.1,2c0.4,0,1.3,0.4,2.3,0.8c2.2,1,5.6,2.4,8.9,2.5
		c4.2,0.1,8.4-2.3,10.1-3.3l0.7-0.4c0.7-0.4,3.7-0.2,4.8-0.2c0.1,0,0.2,0,0.2-0.1c0.1-0.1,0.1-0.1,0.1-0.2c0,0-0.3-1.6,0-5.7
		c0.1-2.1,3.1-3.4,6.2-4.7c2.6-1.1,5.4-2.3,6.9-4.2c2-2.5,3.9-2,6.4-1.2c1.3,0.4,2.8,0.9,4.6,0.9c5.1,0.1,12.6-6.2,14.2-9.4
		c1.1-2.2-0.4-3.1-1.7-3.9c-0.8-0.5-1.5-0.9-2-1.7c-0.9-1.5-2.6-1.9-5.6-2.7c-1.5-0.4-3.5-0.9-5.8-1.7c-3.8-1.3-3-4.2-2.3-6.8
		c0.5-1.7,0.9-3.3-0.5-3.8c-2.9-1-10-0.3-15.9,3.8c-3.2,2.2-6.8,3.6-9.2,4.3l-0.8,0.2c-0.3,0.1-0.5,0.2-0.7,0.2
		c2-2,9.7-7.9,14.1-10.5c0,0,0,0,0,0l1-0.6c0,0,0.8-0.4,0.8-0.4c2.6-1.1,5.2-0.8,7.8-0.5l3.1,0.3c2.2,0.1,4.6-0.1,6.7-0.3l2.7-0.4
		c0.9-0.2,2.4-2.3,4.8-5.6c2-2.8,4.4-6,6.4-7.9l0.4-0.4c3-2.8,3.1-2.8,2.8-5.2l-0.2-2.2c-0.1-2.3,0.6-3.2,1.3-4.2
		c0.7-0.9,1.4-1.9,1.3-4.2c-0.1-1.4,0.2-2.4,1-3.2c0,0,0,0,0,0c0.6-0.6,1.5-1,2.5-1.5c1-0.5,2.1-1,3.2-1.8c2.1-1.6,4.3-5.2,6.2-8.4
		c1.3-2.2,2.5-4.2,3.5-5.2c1.2-1.2,1.2-3.6,1.1-6.4c0-3.1-0.1-6.5,1.6-8.8c2.1-2.8,3.2-5.4,3.4-8.5l0.1-3.1c0-2.6,0.4-5.1,0.8-7.9
		l0.6-3.7c0.3-2.3,1.3-4.9,2.9-7.7c1.1-1.8,2.4-3.7,3.9-5.6c1.5-1.8,2.8-3,4-4c1.6-1.4,2.8-2.4,3.6-4.4l0.8-1.9
		c1.2-2.7,2.4-5.5,2.1-8.6c-0.2-1.9-0.8-3.1-1.4-4.3c-0.7-1.3-1.3-2.5-1.2-4.4c0.1-2.8-0.4-3.3-1.7-4.9l-1.9-2.5
		c-2.6-3.6-4-3.5-5.2-3.4l-0.5,0c-0.5,0-1.2-0.5-1.9-1.1c-1.1-0.8-2.5-1.9-3.9-1.9c-1.1,0-2.8,0.5-4.7,1.2c-2.4,0.8-5.1,1.7-7.2,1.6
		l-2.4-0.2c-2.4-0.2-4.5-0.4-7.8,0.5c-4.1,1.1-14.9-0.9-24.9-3l-0.5-0.1l0,0l0,0c-5.7-1.1-7.7,0.2-10.2,1.8c-1.5,1-3.2,2.1-6.1,2.9
		c-6,1.6-9.5-2.9-11.7-5.6c-0.6-0.7-1.1-1.3-1.5-1.7c-2-1.6-10.7,2.7-12.3,4.8c-1.4,1.7-6.5,2.7-9.4,2.8l0,0l-0.6,0
		c-1.2,0-2.5,1.2-4.1,2.7c-1.4,1.4-3.2,3.1-5.6,4.4c-4.7,2.7-9.8,0.9-9.8,0.9c0,0-0.1,0-0.1,0c-0.8,0.1-4.8,0.9-4.9,2.3
		c0,1-4.1,3.9-6.5,5.6l-0.9,0.7c-1.5,1-2.9,1.8-4.2,2.5c-1.2,0.6-2.2,1.1-2.8,1.7c-0.8,0.7-3.3-0.6-5.1-1.8c1.5,0,4.3,0,5.4-1.1
		c1.5-1.3,2.9-4.1,2.9-4.2l10.7-11.4l3.3-5c0.1-0.1,0.1-0.2,0-0.3c0-0.1-0.1-0.1-0.2-0.1c-0.3,0-3,0.1-3.8,0.9c-0.9,0.8-3.5,3-6.3,3
		c-0.5,0-0.8-0.2-0.9-0.5c-0.6-1.4,1.4-5.1,2.9-6.8c1.1-1.2,3.3-1.5,4.9-1.4c1.1,0.1,1.6,0.3,1.7,0.4c0,0.7,1.8,2.5,2.2,2.9
		c0.1,0.1,0.1,0.1,0.2,0.1c0.1,0,0.1,0,0.2-0.1l12.7-18.4c0.1-0.1,0.1-0.2,0-0.3c-0.1-0.1-0.2-0.1-0.3-0.1c-0.1,0-2.4,0.9-4,2.5
		c-1.3,1.4-3.8,2.2-4.4,2.4c-0.2-0.3-2.1-2.7-2.1-2.7c-0.1-0.1-0.2-0.1-0.3-0.1c0,0-4.4,2-6.4,2.4c-1.9,0.4-3.1-0.1-5.7-2.4
		c-2.1-1.8-5.4-2.3-6.7-2.5c0.9-0.7,3.2-2.2,5-1.2c2.7,1.5,4.4,1.5,6.2,1c1.9-0.5,5-5.1,5.2-5.3c0-0.1,0.1-0.1,0-0.2
		c0,0,0-0.1-0.1-0.1c0,0-3-3.7-3.7-4.4c0.9,0.1,3.9,0.2,3.9,0.2c0.1,0,0.1,0,0.2-0.1c0,0,3.6-3.6,3.7-3.7c0.6-0.1,5.7-0.8,6.3-3.2
		c0.5-2.2,6-7.5,9.4-9.8l2-1.3c2.7-1.6,6-3.7,10.9-9.8c4.7-5.7,10.1-10,15.8-12.5c3.6-1.5,9.1-11.8,9.5-14.1l0.4-1.7
		c0.3-1.2,0.7-2.5,0.5-3.5c-0.1-0.5-0.3-0.9-0.7-1.1c-0.9-0.6-1.7-2.4-2.1-5c-0.1-0.5-0.2-1-0.2-1.6c-0.2-1.7,1.1-2.7,2.2-3.5
		c0.7-0.5,1.3-0.9,1.5-1.5c0.5-1.2,0.2-3.4,0.1-4.2c0-0.1,0-0.1,0-0.2c0.1-0.1,2-4.2,2-4.2c0,0,0-0.1,0-0.2c0,0,0-0.1,0-0.1
		c0-0.1-0.1-0.1-0.2-0.1l-4.7-0.4l-4.4-0.2l-2.8-1c-0.1,0-0.1,0-0.2,0c0,0-3.9,1.7-4.2,1.8c-1.7-1.3-3.6-2.8-3.7-3.1c0,0,0,0,0,0
		c0-0.1-0.1-0.2-0.2-0.2c-0.5-0.1-2.8,0.9-3.1,1.4c-0.1,0.1-0.1,0.2,0,0.4c0.1,0.7,0.9,2,1.6,3.1c0,0.2-0.7,2.6-0.8,3
		c-0.4,0-6.1-0.7-6.1-0.7s-3.2,0.4-3.7,0.4c-0.1-0.3-0.2-1.4-0.2-1.4c0-0.1-0.1-0.2-0.3-0.2l-7.1,0.6c0,0-0.1,0-0.1,0l-6.8,4.8
		c0,0-3.9,1.2-4,1.3c-0.1,0-6.7-1.6-6.8-1.6c-0.2-0.1-1.9-1.5-3.1-1.5c-0.5,0-1.4,0.2-2.5,0.4c-1.4,0.3-3.1,0.7-4.2,0.7l-0.4,0
		c-1.8,0-2.9-0.1-4,2.1c-1,1.9-2.6,2.1-5.2,1.7l-0.8-0.1c-2-0.4-3.5-0.6-5.2,1.9c0,0-3.5,5-4.9,7c0.2-1.7,1.5-11.5,1.5-11.5
		c0,0,0,0,0-0.1c0-0.1-0.1-0.2-0.2-0.2l-7.8-1.6c-0.1,0-0.3,0-0.3,0.2c0,0-0.7,2.3-1.6,6c-0.7,3.1-6.5,6.1-8.4,7
		c1.9-4.6,4-9.2,4.6-9.5c0.1,0,0.3-0.1,0.3-0.3c0.2-0.7-2.3-3.6-3.9-5.2c-0.1-0.1-0.2-0.1-0.3-0.1c-0.9,0.4-3.5,1.6-4.2,2.7
		c-0.5-1-1.7-3.8-2.4-5.6c0-0.1-0.1-0.1-0.2-0.2l-10.3-1.8c-0.1,0-0.1,0-0.2,0c-0.1,0-0.1,0.1-0.1,0.2c0,0-1.6,9.6-1.7,9.7
		c-0.1,0.1-3.8,3-3.8,3c-0.1,0.1-0.1,0.1-0.1,0.2c0,0,0.9,4.4,0.9,4.4c0.4,0.8,0.6,1.5,0.7,2.1c0.1,0.3,0,0.5,0,0.6
		c-0.5,0.4-1.2,1.7-2,3.5l-0.4,0.8c-0.4,0.7-0.9,1.3-1.4,1.8c-0.9,1-1.9,2-2.2,4.1c-0.2,1.2-0.1,2.4,0.1,3.6
		c0.2,1.2,0.5,2.2,0.7,3.1l0.3,1.3c0,0,0,0,0,0c0.1,0.6,0.9,1.5,2,2.5c0.4,0.4,0.9,1,1.1,1.2c-0.6,0.3-2.8,0.6-5.1,0.5
		c-2.2-0.1-4.5,0.7-7.4,1.6l-1.1,0.4c-3.3,1.1-4.5-1.6-4.6-1.7c-0.1-0.1-0.2-0.2-0.3-0.1c-0.1,0-0.2,0.2-0.2,0.3
		c0,0.2,1.2,4.3,2.8,6.2c1.5,1.9,3.5,5.4,3.6,6c0.1,0.3,0.1,1.4-0.6,5.1l-0.2,1.3c-0.3,1.9-0.5,2.8-1.8,2.8c-1.1,0-2.5-1.3-3.6-2.4
		c-1-0.9-1.6-1.5-2.1-1.5c-0.8,0-2,0.8-2.6,1.6c-0.3,0.4-0.3,0.7-0.3,0.9c0,0.1,0,0.1,0,0.1c0.2,0.5,3.7,4.4,11.3,12.3l0.6,0.6
		c1.6,1.7,3.2,5.5,3.2,5.5c0,0,0.6,2.4,0.8,3.2c-0.7-0.3-2.9-1.2-2.9-1.2c-0.1,0-0.1,0-0.2,0c-0.8,0.3-3.5,1.2-3.8,1.9l0,0.3
		c0.2,0.5,2.6,3.6,3.2,4.5l0,0c-0.3,0.1-1.4-0.1-4.4-2.4c-1.7-1.3-2.6-2.1-3.2-2.7c-1-1-1.1-1-2.4-0.7c-1,0.3-1.2,0.7-1.6,1.3
		c-0.4,0.7-0.9,1.6-2.7,2.9c-0.9,0.7-1.6,0.9-2.1,0.7c-1.1-0.5-1.5-2.9-1.9-5.5l-0.1-0.8c-0.3-2-1.2-2.6-1.9-2.7
		c-1.4-0.3-3.1,0.9-3.9,2.2c-1.3,2-0.2,6.2,1.3,9.4c1,2.2,0.2,4.2-0.8,4.8c-0.6,0.4-1.2,0.3-1.7-0.3c-1.2-1.3-1.7-3.7-2.1-6.2
		l-0.7-3.3c-0.3-1.1-1-1.7-1.9-1.6c-2.1,0.2-5,3.2-5.2,5.4c-0.2,2.6,0.4,8.7,2.4,10.5l0.9,0.8c1.7,1.4,3.8,3.2,2.9,4.8
		c-0.5,0.9-1.3,0.8-2.2,0.7c-1-0.1-2.1-0.3-2.8,1.1c-1.1,2.1-0.6,4.4,1.5,7.3c0.7,1,1,1.8,1.2,2.6c0.3,1,0.6,1.9,1.7,3l2,1.6
		c1.5,1.1,2.9,2.1,2.8,3.3c0,0.5-0.3,0.9-0.9,1.1c-1.2,0.4-3.4-0.5-5.6-3.4c-1.6-2.2-3.3-3.2-4.9-3.1c-1.3,0.1-2.5,1-3.3,2.5
		c-1.4,2.6-1.4,11.2,0.5,13c1,1,1.1,2.6,1.2,4.7c0.1,1.3,0.2,2.7,0.5,4.3c0.3,1.7,1.1,2.7,2.2,3.1c1.4,0.5,3.4-0.1,5.5-1.8
		c1.1-0.9,2-2,2.8-2.8c0.8-0.9,1.5-1.8,1.9-1.7c0.2,0,0.3,0.3,0.5,0.7c0.3,0.8,0.8,1.5,1.2,2.1c0.4,0.6,0.8,1.1,0.7,1.5
		c-0.1,0.4-0.6,0.8-1.6,1.3c-1.8,0.9-2.8,1-3.5,1.1c-0.6,0.1-1.1,0.1-1.6,0.8c-0.6,0.8-1,2.6-0.5,3.9c0.2,0.7,0.7,1.1,1.3,1.2
		c1.8,0.4,5.7,0.5,8.2-0.6c0.6-0.3,1.1-0.3,1.6-0.1c1,0.5,1.6,2.4,2,4.1c0.1,0.5,0.1,0.8-0.1,1c-0.3,0.2-1.2,0.5-4.8-1.4
		c-0.5-0.3-1-0.3-1.5-0.1c-1.4,0.5-2.2,2.8-3.1,5l-1.1,2.6l-0.9,1.7c-0.9,1.6-1.4,2.3,0.4,4c0.8,0.8,1.7,1.3,2.5,1.7
		c1.2,0.7,1.8,1.1,1.8,1.9c0,0.2-0.1,0.3-0.2,0.4c-0.4,0.4-1.7,0.1-3.2-0.1c-1.2-0.2-2.5-0.4-3.9-0.5c-3.7-0.2-4.3,1.7-5.3,5.1
		l-0.4,1.2c-0.4,1.1-0.4,2,0,2.5c0.5,0.8,1.7,0.9,2.9,1.1c0.9,0.1,1.8,0.2,2.6,0.5c1.2,0.5,2,1.4,2.3,2.5c0.2,1.1,0,2.2-0.7,2.9
		c-0.8,0.9-2,0.2-3.9-1.1c-0.9-0.6-1.9-1.4-3.1-1.9c-0.9-0.4-1.5-0.5-2-0.3c-0.8,0.4-1.1,1.4-1.5,3c-0.3,1.2-0.7,2.6-1.4,4.3
		c-1.4,3.4-1.7,5-1.1,5.8c0.5,0.7,1.5,0.6,2.5,0.5c1.5-0.2,2.5,0.1,3.1,0.8c0.6,0.7,0.7,1.8,0.3,3.3c-0.5,1.8-2.1,2.2-3.6,2.6
		c-1.3,0.3-2.4,0.6-2.6,1.8c-0.1,1.4,1.5,2.1,2.8,2.7c0.5,0.2,1.2,0.5,1.2,0.7c-0.1,0.1-0.7,0.7-0.7,0.7c-0.8,0.8-1.9,1.8-4.3,3
		c-1.4,0.7-2,0-2.8-0.9c-0.8-0.9-1.8-1.9-3.8-1.5l-3.2,0.9c-2.3,0.7-4.5,1.3-7.6,1.3c-2.9,0-4.4,1.8-4.9,3.3c-0.5,1.6,0.1,3.2,1.5,4
		c1.8,1.1,3,0.5,4-0.1c0.8-0.4,1.5-0.8,2.6-0.6c1.4,0.2,2.6,0.7,4,1.2c1.2,0.4,2.4,0.9,3.8,1.2c3,0.7,5.8-0.4,9.9-2.7
		c3.1-1.7,4.9-0.9,5.6-0.4c-0.6,0.2-1.7,0.5-2.7,0.6c-1.1,0.1-3,2-4.7,3.7l-1.9,1.8c-0.9,0.7-2.4,0.4-3.9,0.1l-1.8-0.3
		c-0.6-0.1-1.2,0.3-1.6,1.1c-0.8,1.6-0.6,4.6,0.6,5.9c1.5,1.6,7.4,6.3,9.3,6.1l1.9-0.4c1-0.3,2.2-0.6,2.5-0.4c0,0,0.1,0.1,0.1,0.2
		c0.1,0.8,1.1,2.1,2.5,3.2c0.8,0.6,2.3,1.7,3.8,1.5c2.2-0.2,4.2-2.6,6.5-5.3l0.9-1.1l1-1.2c2.2-2.5,3.9-4.5,5.3-5.6
		c1.1-0.8,2.2-2.1,3.3-3.2l1.7-1.8l5.9-5.6c0.9-0.8,2.1-3.1,3-4.6l0.7-1.2c0.2-0.3,2-0.8,3.8-1.1c-1.2,1.4-4.1,4.8-4.2,5.6
		c-0.1,0.3,0,0.9,0.1,1.5c0.2,1.2,0.5,2.4,0.6,2.7c0,0.1,0.1,0.2,0.2,0.2c0,0,3.5,0.2,5.5,0.3c-2.5,0.6-7,1.8-7.8,2.2
		c-1,0.5-3.5,2.6-3.6,3.7c0,0.2-0.2,0.8-1.8,2.7c0,0,0,0,0,0l-1.2,1.4c-0.7,0.9-1,1.2-1.1,1.4c0,0.1-2.3,5.4-2.3,6.1
		c0,0.1,0.1,0.2,0.1,0.3c0.4,0.3,4.3-0.9,7.9-2.1c-0.8,0.9-2.4,2.6-4.4,3.8c-2.8,1.7-7.5,0.3-7.5,0.3c-0.1,0-0.2,0-0.3,0.1
		c0,0.1-0.1,0.1,0,0.2c0,0,0,0.1,0,0.1c0.1,0.2,3.2,4.6,4.4,5.4c0.7,0.5,1.5,0.5,2.5,0.5c0.9,0,1.9,0,3.2,0.3c1.9,0.5,4,1.2,5,1.5
		c-1.1,0.5-3.7,1.5-5.2,0.8c-1.5-0.7-2.3-0.6-3.3-0.5l-1.7,0.1c-2.3,0-3,0-4,1.3c-1.1,1.3-3.1,2.9-5.3,4.4c-0.7,0.4-1,0.9-1,1.3
		c0,0.7,0.7,1.2,1.4,1.8c0.5,0.4,1,0.8,1.3,1.2c0.1,0.2,0.1,0.3,0,0.3c-0.2,0.3-1.1,0.4-1.9,0.5c-0.9,0.1-1.8,0.2-2.3,0.6
		c-1.2,0.9-1.8,8.1-1.6,9.1c0,0,0,0.1,0,0.1c0.1,0.1,0.2,0.2,1,0.6c0.8,0.4,2.9,1.5,3,2c0,0,0,0,0,0.1c-0.1,0.5-0.8,1.5-1.5,2.4
		l-1.2,1.7c-0.4,0.6-0.4,1.2-0.3,1.9c0.2,0.9,0.7,1.9,1.2,2.9c0.1,0.1,0.1,0.3,0.2,0.4c0.1,0.3-0.2,0.6-0.7,1
		c-0.6,0.5-1.3,1.2-1.8,2.6c-0.4,1.4-0.3,2.5-0.2,3.3c0.1,0.8,0.1,1.2-0.3,1.5c-0.6,0.4-1.5,1.5-2.4,2.7c-0.8,1-1.5,2-2.2,2.6
		c-0.3,0.2-0.4,0.6-0.4,0.9c0,0,0,0.1,0,0.1c0.2,1.2,2.1,2.5,2.8,2.9c-0.1,0.4-1.6,4.2-1.6,4.2c-0.2,0.4-1.1,1.4-2,2.4
		c-0.9,1-1.9,2-2.2,2.6c-0.5,0.9-0.7,2.4-0.8,4.6c0,0,0,0,0,0c0,0.1,0.1,0.2,0.2,0.3c0.5,0.3,2.8-0.7,5-1.8
		c-0.9,1.3-2.8,4.1-3.7,5.9c-1,2-1.2,4.3-0.9,5.9c0.1,0.3,0.1,0.6,0.2,0.9c0.5,1.4,2.8,4.2,2.9,4.3c0.1,0.1,0.2,0.1,0.2,0.1
		c0,0,2.5-0.5,3.5-0.7c-1.3,1.3-4.6,4.9-6.9,8.5c-1.9,2.9-2.7,6-3.4,8.5c-0.4,1.5-0.7,2.7-1.2,3.7c-0.5,1.1-0.6,2-0.5,2.8
		c0.1,0.5,0.3,1,0.4,1.4c0.1,0.4,0.3,0.8,0.3,1.1c0,0.2,0,0.4,0,0.6l-0.2,3.9c-0.1,2.3-0.2,5.1-0.4,7c-0.2,1.7-1.8,3-3.2,4.2
		c-1.2,1-2.2,1.9-2.2,2.8c0.1,1.7,0.2,10.4,0.2,10.5c0,0,0,0,0,0c0,0.1,0,0.1,0.1,0.1c0.1,0,0.1,0.1,0.2,0.1c0.4,0,9.8-0.7,11.5-1
		c2-0.3,5.1-3.7,6-7.4c0.2-0.7,0.2-1.4,0.1-2.1c-0.4-2.6-2.6-4.8-3.1-5.4c0.5-0.9,4.1-7.1,5.2-9.4l0.4-0.9c1.1-2.3,2.4-4.9,1.8-8.4
		c-0.5-2.9,0.1-5.5,0.6-7.8l0.4-1.9c0.4-2.4,4-5.5,6.8-8l0.8-0.7c1.7-1.5,2.6-3,2.7-4.6c0-0.3,0-0.6-0.1-0.9
		c-0.1-0.9-0.6-1.7-1.2-2.4c-1.2-1.3-2.1-4-2.9-6.5l-1.5-4c-1-2.3-1.6-4.5-2-6.5c-0.2-1.1-0.3-2.1-0.2-3c0-0.6,0.1-1,0.4-1.3
		c0.4-0.4,1.3-0.4,2.4-0.3l2,0c1.8-0.1,2.6-2.5,3.5-5c0.6-1.8,1.3-3.7,2.3-4.9c2.5-2.9,8.8-7.8,10.7-8.8c1.2-0.7,2.2-2.5,3.2-4.1
		c0.6-1.1,1.2-2,1.6-2.4c0.8-0.7,4.4-2.8,6.5-4c-2.1,2.1-5.8,5.8-6,6.7c-0.2,0.7-1.9,2.5-3.6,4.3l-2.8,3.1c-1.4,1.6-3.1,3.1-4.7,4.6
		l-3.5,3.4c-2.4,2.5-3.8,5.9-4.3,10.7l-0.5,3.6c-0.4,2.4-0.7,4.6-0.5,6.2c0.1,0.5,0.3,1,0.5,1.4c1.3,1.9,5.8,6.5,6,6.6
		c0.1,0.1,0.2,0.1,0.3,0c0,0,1.1-1,0.8-2.8c-0.3-1.7,0-3.5,0.8-6.1c0.6-2,1-4.5,1.1-5.6c0.6,0.7,1.7,2.1,2.4,3.3
		c0.5,0.8,1.1,1.3,1.9,1.4c0.8,0.1,1.7-0.2,2.6-0.9c0.6-0.5,0.6-1.8,0.4-3.2c-0.1-0.4-0.2-0.8-0.2-1.1c0.8,1.6,1.6,3.3,1.6,3.3
		c0.1,0.3,0.4,1.2,0.6,2.2c0.7,2.6,1.2,4.6,1.8,5.2c0.2,0.2,0.4,0.2,0.6,0.2c0.6-0.1,1.1-1.1,1.9-2.6c0.5-0.9,1-1.9,1.5-2.6
		c1.5-2,2.4-4.4,3.1-7.9c0.4-2.3,1.8-3.3,2.4-3.6c0.6-0.3,1-0.3,1.1-0.3c0,0,0.6,0.6,0.6,0.6c1,1.1,2.7,3.2,4.5,2.7
		c0.4-0.1,0.7-0.3,0.9-0.7c0.2-0.4,0.2-1,0.1-1.5c0-0.3-0.1-0.6-0.2-0.8c0.4,0.3,0.8,0.6,1.4,1c1,0.6,2.2,1.4,3.4,2.4
		c1,0.8,1.8,1.5,2.5,2.3c2.1,2.4,5.2,4.1,6.9,4.9c-2.5-0.1-8.3-0.4-10.7-1.2c-0.9-0.3-1.7-0.7-2.5-1.1c-2.1-1.1-4.2-2.2-6.2-0.2
		c-1.2,1.2-2.3,4-2.8,7.7c-0.6,3.9-0.4,7.5,0.5,9.1c1.6,3.1,1.3,3.8,0.2,6.3l-1,2c-0.9,1.7-1.7,3.2-1,4.3c0.9,1.5,7.1,6.5,10.3,9
		c1.9,1.5,2.9,3.3,3.7,4.8l1.2,2.6l0.8,1.8c1.7,3.6,2.1,9,0,11.3c-0.8,0.9-2.1,1.4-3.5,1.9c-2.4,0.9-4.8,1.9-5.2,4.8
		c-0.4,2.4-1.6,3.6-2.7,4.6c-0.9,0.8-1.7,1.6-1.7,2.8c-0.1,2.3-2.5,9.1-3.3,11.3l-0.1,0.3c-0.3,0.9-2.8,3.2-5,5.3
		c-3,2.8-4.3,4.1-4.3,4.8c0,1.1-1.1,6.1-2,8.1c-0.7,1.6-0.1,4.4,0.6,6.6l0.5,1.5l0.1,0.4c0.6,2,1.8,5.6,0.1,7.1
		c-0.4,0.3-0.7,0.4-1.1,0.2c-0.9-0.5-1.6-2.7-1.3-5.4c0.3-2.7-0.7-3.5-1.6-4.3c-0.4-0.3-0.8-0.7-1-1.1c-0.4-0.6-1.1-0.8-2.1-0.6
		c-1.7,0.3-3.7,1.9-3.9,3.6c-0.2,1-0.5,1.7-0.8,2.3c-0.4,0.8-0.8,1.6-0.5,3l0.4,1.6c0.3,1.2,0.6,2.3,0.8,4.9
		c0.2,3.2,5.3,7.9,8.1,10.4l0.8,0.7c2,1.9,3.4,6.2,4.6,10l0.1,0.3l0.8,2.8c0.5,2,0.8,3.2,2.5,4.9c1.1,1,1.9,1,2.4,0.8
		c1.1-0.5,1.8-2.4,1.8-5c0-2.3-0.9-3-1.6-3.6c-0.5-0.4-0.8-0.7-0.9-1.4c-0.1-1-0.7-1.9-1.4-2.9c-0.8-1.1-1.7-2.4-1.9-4.1
		c-0.3-3.3,2.1-6,3.2-7c1-0.9,3-2.5,4.6-2.4c0.5,0,1,0.2,1.3,0.6c0.9,1.1,2,2.1,3.2,3.2l2.7,2.6c1.5,1.5,3.2,2.2,4.6,2.8l1.7,0.8
		c1.5,0.9,4.6,4.1,5.4,5.4c1,1.8,2.5,3.2,4.5,4.2l3.4,1.9c1.8,1.1,2.5,1.5,2.9,1.5c0.7,0,2.5-3.6,2.6-4.5c0.1-0.6,0-1.8-0.1-2.9
		l-0.1-1.9c0-0.7,0.9-4.2,1.3-5.9c0,0,0-0.1,0-0.1c0-0.1,0-0.1-0.1-0.2c0,0-3.6-2.8-4.8-6.1c-0.1-0.2-0.1-0.5-0.2-0.7
		c-0.4-2.3,1.5-3.9,2.3-4.5c0.2,0.8,0.6,2.5,1.6,3.6c1.3,1.3,3.7,3.2,4.3,3.5c0.2,0.1,0.7,0.4,4.9-1.6c0.1,0.2,0.3,0.9,0.5,1.4
		c0.4,1.3,0.8,2.9,1.5,3.7l0.5,0.6c1.4,1.6,3.4,3.9,5,3.9c1.1,0,1.3-1.6,1.5-3.2c0.2-1.2,0.4-2.6,0.9-2.8c0.1,0,0.3,0,0.4,0.1
		c0.8,0.7,1,3.7,1,4.4c0,0,0.3,0.6,0.3,0.6c0.8,0.7,2.8,1.6,4.3,1.4c1.7-0.2,9.5-5.4,9.9-5.6c0.1,0,0.1-0.1,0.1-0.2
		c0-1.5,0-3.2,0.2-3.6c0.5,0,3.2,0.2,4.9,0.4c0.1,0,0.2,0,0.2-0.1c0,0,3-3.1,3.1-3.3c0.7,0,5.7,0.4,7.2,0.2c0.6-0.1,1.1-0.4,1.5-0.9
		c0.9-1.2,1.1-3.3,0.7-5.8c-0.5-3.1-0.1-4.7,0-5.1c0.8-0.1,8.5-1,11.3,0.4c2.3,1.2,7,1,10.4,0.9l2.9,0l0.3,0
		c1.7,0.1,4.7,0.3,6.6,0.8c0.1,0,0.1,0,0.2,0c0.1,0,0.1-0.1,0.1-0.1c0.9,0.3,1.5,0.7,1.5,1.2c-0.2,1.6-7.5,2.3-10.5,0.9
		c-2.9-1.3-3.3-0.3-5.5,1.5c-2.2,1.9,2,4.1,0.6,4.7c-1.4,0.6-4.2-2.5-5.2-1.1c-1,1.4-2.9,4.6-3.9,8.4c-1,3.8-0.4,5.4-0.4,6.7
		c0,1.3-4.1,3.7-6.2,8.1c-2.2,4.4-3.2,8.5-3.8,13.5c-0.6,4.9-3.3,10.1-3.3,10.1l14.4,18.5c0,0,0.6,7.8,1.7,9.1
		c1.1,1.3,4.3,7.4,4.3,7.4s3.3,0.7,4.3,0.4c1-0.3,3.1-5.6,3.1-5.6s0,3.7-0.5,6.4c-0.5,2.6-2.3,4.5-2.3,7.1c-0.1,2.6-1,3.2,0,5
		c0.9,1.9,3.6,3.8,3.6,3.8s0.5-0.6-0.8-1.9c-1.2-1.2-1.3-3.5-1.3-3.5l5.6,3.2l0-2.2c0,0,3.9-4,4.5-6.3c0.6-2.2,5.1-8.3,5.1-8.3
		s0.1,1.4,0.5,3.8c0.4,2.5,3.7,4.4,4.2,3.9c0.5-0.5,7.1-7.6,7.1-7.6s-0.1,0.5-0.2,1.2c-0.2,2.2-0.6,7.2,1,10.2
		c2.1,4-2.3,5.4-5.3,7.6c-3,2.2-1.4,4.8,2.6,7.6c4,2.9-1.1,3.2-3,4.3c-1.9,1.1-6.1,2.8-8.2,4.3c-0.1,0.1-0.1,0.1-0.2,0.2
		c-1.8,1.6-1,4.4-0.8,7.1c0.2,2.7-1.7,6.9,0.6,9.7c0.1,0.1,0.2,0.3,0.4,0.4c2.4,2.6,7.1,5,7,6.9c0,0.6-1.1,2.2-2.6,4.1
		c-3.5,4.7-9.4,11.4-9.4,11.4s4.2,10,4.4,10.5c0.1,0.5,4.2,6.1,5.4,8.5c1.2,2.4,3.2,6.9,7.4,8.8c0.1,0,0.2,0.1,0.3,0.1
		c0,0-0.1,0-0.1,0.1c0,0,0,0,0,0c0,0.1,0.1,0.2,0.2,0.2c2.4,0.8,5.5-0.3,7.6-1.8c-0.5,1.1-1.3,2.8-1.5,3.5c-0.1,0.1-1.3,1-1.4,1.1
		c-1.6,0.8-3.9,1.5-5.5,1.8c-2.3,0.3-5.2-0.7-6.7-2.4c0-0.1-0.1-0.1-0.2-0.1l-0.2,0c-0.1-0.2-0.2-0.3-0.3-0.5
		c-1.1-2-4.8-14-5.6-13.5c-0.8,0.5-10,4.3-10,5.3c0,0.9,4,6.4,5.2,8.4c-0.1,0.1-0.1,0.2-0.1,0.3c0,0,0,0.1,0,0.1l0.2,0.5
		c0,0,0,0,0,0c0.1,0.2,0.2,0.3,0.2,0.3c0.6,1.1,1.4,2.4,1.5,3.5c0.1,0.6,0.1,1.2-0.2,1.6c0,0.1,0,0.1,0,0.2c0,0.1,0,0.1,0.1,0.2
		c-0.2,0.3-0.5,0.5-0.8,0.7c-2.8,1.6-4.7-4.3-7.1-6c-2.4-1.7-7.8-5.4-9.4-5.2c-0.9,0.2-3.3,1-5.4,1.8c-1.6,0.6-3.1,1.1-3.8,1.3
		c-0.4,0.1-1,0.4-1.7,0.8c-1.8,1-4,2.6-5.1,3.3c-1.5,1-6.1,0.6-10.2-1.5c-4-2.1-8.5-3.5-8.5-3.5s0.4,5-0.8,4.9
		c-1.2,0-6.4,2.1-10.9,4.6c-4.4,2.5-6.4,0.8-7.8,0.9c-1.4,0.1-4,2-6.3,5c-2.3,3-2.1,4.4-5.2,7.5c-3.1,3.1-4.7,7-5.2,8.6
		c-0.5,1.6-9.3,8.7-11,10.8c-1.7,2.1-4.7,1.6-4.7,1.6s-10.1,9.9-11,11.4c-0.9,1.6-2.3,7.2-2.3,7.2s5.6-2,7.5-2.5
		c1.9-0.5,4.1-1.3,4.6-1.1c0.6,0.2,5.2,3.6,5.2,3.6s2.3-6.5,2.5-7c0.2-0.5,4.2-5.6,4.2-5.6s4.5,0,6.2-0.7c1.8-0.8,5.4-1.3,8.8-1.1
		c3.4,0.2,7.3-0.1,7.3-0.1s-3.2,3.6-2.8,5c0.4,1.4-2,7.4-2,7.4l8.4,11.6c0,0-3.6,4.3-3.9,5.3c-0.4,1-2.2,5.7-2.2,5.7l3.7,8.3l7.3,0
		l0.5,0l-7.6,4c0,0-1.1,7.5-3.6,16.5c-2.4,9-12,15.7-13.2,17c-1.3,1.2-4.9,1.4-4.9,1.4s-3,1.9-4.2,3.2c-1.1,1.3-3.2,3.3-5.7,4.4
		c-2.5,1.1-6.5,0.6-9.2,0.5c-2.7-0.1-2.5,1.6-4.3,1.9c-0.2,0-0.5,0.1-0.7,0.1c-1.6,0.3-3.3,1-3.9,2.8c-0.7,2.1-1.6,1.2-4.8,3.6
		c-3.2,2.3-2.1,4.7-4.3,4.4c-2.2-0.4-6,2.3-7.2,0.7c-1.2-1.6-7.1-2.3-7.1-1.5c0,0.9-0.4,5-1,5.4c-0.6,0.4-5.6,3-9.4,4.8
		c-3.8,1.8-5.2,2-5.4,4.4c-0.2,2.4-3,2.9-3,2.9s2.4,2.1,5.6,1.5c3.2-0.6,7.2,0.2,9.5,2.6c2.3,2.4,0.9,2.6-0.2,6.5
		c-1.1,3.9-9,5.4-7.6,6.5c1.4,1.1,3.8,4.3,3.8,4.3s1.8-2,3.9-1.8c2.1,0.2,4.4,1,7.9,1c3.5,0,9.1-3.7,9.1-3.7s-2.1,3-7.6,5.7
		c-5.6,2.7-8.2,0.9-8.2,0.9s1.6,1.7,3.7,4.2c2.1,2.5,3.6,4.5,7,5c3.3,0.5,6.1-5.2,7.7-5.8c1.6-0.6,2.8,0.8,5.8,0.5
		c3-0.3,3.1-1.3,4.5-4.2c1.3-2.6,2-4.8,4.2-5.6c0.3-0.1,0.5-0.2,0.8-0.2c2.9-0.6,8.5-0.7,12.3-0.5c3.8,0.2,4.4-3.8,6.7-2.9
		c2.3,0.9-0.4,4.4,0.3,6.5c0.7,2.2,2,4,5,4.2c3,0.2,4.9-2.5,6.5-0.9c1.6,1.6,10.2,1.1,10.2,1.1s-7.1,5.3-9.1,4.6
		c-2.1-0.7-7,0.9-7.5,2.9c-0.4,2.1,0.6,5,3.9,6.9c3.3,1.9,4.8,0.4,6.6-1.1c1.8-1.5,4.6-1,7.3-0.5c2.7,0.5,7.7-0.3,9.6-3
		c0.9-1.2,2.1-2.1,3.3-2.5c1.6-0.6,3-0.4,3.6,0.6c1,1.8-0.9,2.7,2.9,8.4c0.5,0.8,1,1.5,1.4,2.2c2.5,4.1,2.9,6,4.9,6.3
		c0.6,0.1,1.4,0.4,2.3,1c2.4,1.3,5.6,3.8,8.2,5.7c3.6,2.6,10.6,3,16.4,3.2c4.9,0.1,9.4-2.3,12.1-5.2c0.5-0.5,0.9-1.1,1.3-1.7
		c1.7-2.7,3.7-5.5,5.8-8.3c0.7-0.9,1.4-1.8,2.2-2.8c3-3.8,8.1-0.4,11.8-1.2c1.4-0.3,2.8-0.7,4.1-1.3c2.2-0.9,4.2-2.3,6.1-4.1
		c0.8-0.8,2.4-2.3,4.4-4.1c5.8-5.5,14.8-13.8,14.8-13.8s-2.4,3.4-5.2,7.3c-2.7,3.7-5.9,7.7-7.8,9.4c-4,3.5-1,3.9-2.5,7.5
		c-0.2,0.4-0.4,0.8-0.6,1.1c-0.7,1-1.6,1.9-2.6,2.7c-1.8,1.3-3.8,2.2-4.4,2.4c-1.1,0.4-6.6,4-7.4,5.2c-0.7,1.3-3.6,6.8-6.8,10.8
		c-1.7,2.1-2.2,3.6-2.5,5c-0.2,1.2-0.3,2.4-0.9,3.8c-1.3,3.2,1.9,5.1-0.1,7.6c-2.1,2.6-6.9,0.2-12.5,0.3c-5.7,0-5.2,2.4-6.8,2.1
		c-1.6-0.4-2.2,1-5.1,0.9c-2.9-0.1-8.9-4.9-13.2-5.7c-4.3-0.8-5.7,0.1-11.4,0.2c-0.6,0-1.2,0-1.7-0.1c-4.1-0.4-4.7-2.4-6.2-0.9
		c-1.7,1.7-7,0.6-9.6,0.9c-2.6,0.3-2.9,0.5-6.4,0.8c-3.5,0.4-4.6-0.5-8.7,1.1c-4.2,1.5-6.4,1.6-6.4,1.6s0.1,1.6,0.6,3
		c0.5,1.5-3.7,2.5-2.4,4c1.3,1.5,1.9,2.5,1.8,5.1c-0.1,2.5-4,4.4-5.4,7c-1.4,2.5-1.4,3.9-5.3,3.7c-3.9-0.2-3.6-2.2-5.3-2.8
		c-1.7-0.6-7-0.3-7-0.3s-0.1,2.6-0.2,4.3c0,1.7-0.2,3.2-1.3,6c-0.1,0.2-0.2,0.4-0.2,0.6c-0.8,2.6-0.1,4.6,0,6.5
		c0,2.1,0.3,7.9-0.1,8.4c-0.5,0.5-5.9,6.7-7.2,7.6c-1.3,0.9-8.3,7.1-8.3,7.1s-0.8,8.1-2.2,9c-1.5,0.8-8,0.5-9.4,1.8
		c-1.5,1.2-0.8,4.7-0.8,4.7l-2.8-0.8c0,0-5.2,1.9-6.1,4.2c-0.9,2.4,0.3,7.3-2.4,9.9c-2.7,2.6-6.3,1.8-6.3,1.8s0.3,5.6-1.7,7.6
		c-2,2-5.4,4.5-9.1,7c-3.7,2.5-4,2.5-6.1,3.8c-2.2,1.3-4.2,6-6.4,6c-2.1,0-3.8-3.7-6.1-2.3c-2.3,1.4-10.3,4.3-12.5,5.3
		c-2.2,1-1.8,3.9-1.3,6.1c0.4,2.2-2.2,4.1-1.6,4.7c0.5,0.7,4.1,3.7,4.1,3.7s4.7-1.6,7.9-1.7c3.2-0.2,0.6-4.8,2.3-7.4
		c1.7-2.7,5.7-1.1,6.3-1c0.6,0.1,3.7,3,6.6,4c2.9,0.9,3.3,1.5,5.9,4.7c2.6,3.2,1.3,4.4,2,7.6c0.7,3.2,3.7,4.2,3.7,4.2s2.9-3.4,3.8-5
		c0.8-1.6,2.5-0.7,3.9-1.5c1.5-0.8,1.4-2.3,2.6-3.6c1.1-1.3-1.6-4.3-2.6-5.5c-0.9-1.2,1.5-4.1,3.2-5.8c1.6-1.7,1.7-6.4,1.7-6.4
		s0.8,3.3,1.3,4.3c0.5,1,2.4,0.8,4.2-2.1c1.8-2.9,2.6-0.9,4.5-1.8c1.9-0.9,2.1-3.5,4.6-3.8c2.5-0.3,4.7-1.6,5.3-4.1
		c0.6-2.5,1.6-5.4,3-7.1c1.5-1.7,4-0.5,5.5,1.1c1.5,1.6,3,0.3,3.7-0.3c0.7-0.6,3.5-0.8,6.3,0.2c2.8,0.9,3.8,0.2,7-2.1
		c3.2-2.2,7.6-2.8,9.6-2.7c2,0,5.5,4.5,7.1,4.7c1.6,0.2,2-1.5,1-2.9c-1-1.5-5.4-3.8-5.4-3.8s1.7-1.4,4.2-2.1c0.5-0.2,1-0.5,1.5-0.8
		c1.7-1.4,2.8-3.8,2.8-3.8s-0.4,1.8-0.6,3.8c-0.2,1.8-0.1,3.8,0.7,4.8c1.6,2.2,1.5,1.7,3.9,4.2c0.1,0.1,0.2,0.2,0.3,0.3
		c2.2,2.3,3.5,4.4,5.2,4.9c1.8,0.6,2.7-2.2,5.2-2.3c2.6-0.2,4.9,3.1,6.4,4.9c1.5,1.9,3.8,5.7,6.2,6c2.4,0.3,2.7-1.2,3.4,0.2
		c0.8,1.4,2.9,1.3,5.6,0.3c2.7-1.1,1.5-1.2,0.8-3.2c-0.7-2,0.3-3.3,1.8-6.4c1.5-3.2,7.2-5.2,8.4-6.4c0.4-0.4,0.9-1.2,1.4-2.1
		c0.8-1.5,1.4-3,1.4-3s-1.1-1.1-2.9-1.3c-1.7-0.2-2.4-1.9-1.7-3.7c0.7-1.7,4.5-3,4.5-3s-0.8-2.2-1.2-4.5c-0.2-1.2-0.3-2.4,0-3.3
		c0.7-2.5,2.1-5.5,3.8-7.4c1.8-1.9,1.3-5.5,1.3-5.5s5.4,4.2,7.4,2.9c2-1.3,5-4.6,7.9-6.2c2.9-1.6,5-1.6,7.8-1.7
		c2.9-0.1,3.4-2.3,4.6-2.7c1.2-0.4,5.1,1.8,7.7-0.2c0.4-0.3,0.8-0.6,1.2-0.9c2.3-1.7,5-3,10.5-1.3c6.5,2,21.7,16.3,21.7,16.3
		c1.3-0.6,2.3-4.2,8.1-5.2c5.8-1,5.5,2.7,9,2.8c3.5,0.1,14,0.3,16.6,0.4c2.5,0.1,6.6-1.6,6.6-4.5c0.1-2.9-2.9-5.3-4.5-5.7
		c-1.2-0.3-0.7-3,1.2-3.5c0.6-0.2,1.4-0.1,2.3,0.4c3.8,2,7.1,1.3,9.2,0.9c1.6-0.3,4.9-1.2,7.7-1.8c0.7-0.2,1.5-0.3,2.1-0.4
		c0.5-0.1,1.2-0.1,2,0c3.5,0.4,8.8,2,9.7,2.3c1.1,0.3,2.3-2.2,4.6-5.5c2.3-3.3,6.3-3.2,9.2-3.9c2.9-0.7,3.9-2.3,2.5-5.7
		c-1.4-3.4-7.3-9.1-7.3-9.1c2.4,1.4,5.2,2.8,7.4,4.4c0.1,0,4.6,2.8,5.6,3.4c3.9,2.5,7,6.5,8.6,5.9c1.6-0.6-0.4-5-1.4-5.9
		c-0.9-0.9,1.2-1.1,3-1.2c0.3,0,0.6,0,0.8,0c1.9,0,1.8,5,3.5,6.5c1.7,1.5,1.6-0.9,1.7-4.6c0.1-2.4,1.3-2,2.5-1.2
		c0.7,0.4,1.3,0.9,1.8,1.2c1.3,0.7,0.8,5.1,2.2,5.8c1.1,0.5,1.9-2.3,2.3-3.8l-0.6-6.1l0.6,6.1c0.1-0.5,0.2-0.8,0.2-0.8
		s1.8,3.9,4.6,6.8c2.8,2.9,5.5,3.2,5.5,3.2l1.6-5.5c0,0,20.2-4.8,25.3-5.4c3.8-0.5,9-0.3,13.4-0.2c1.5,0.1,2.9,0.1,4.1,0.1
		c3,0.1,5.4,0.2,9.1,1.2c2.3,0.6,5.1,1.6,8.7,3c9.8,3.9,16.5,4.1,16.5,4.1s3-6.8,7-11.2c3.9-4.4,10.3-3.1,13.5-4.8
		c3.2-1.7,7.2-1.4,9.7-6c2.5-4.6,8.1-4.1,11.7-3.5l0.1,0v0c3.6,0.5,8.3-0.1,8.3-0.1s0.1-10,1.7-12.6c1.7-2.5,11-6.1,12-7.4
		c1-1.3,9.6-2.8,12.5-4.8c2.9-2,2.8-8.4,2.3-9.8c-0.4-1.4-1.4-9.6-1.8-11.2c-0.4-1.6,4.5-7.1,4.5-7.1s-2.2-3.1-6.2-1.4
		c-4,1.7-5.6,1-9.9,1.4c-4.3,0.4-6.7,0.3-13.1,3c-6.4,2.7-7,0.8-12.3,2.3c-5.3,1.5-7.6-1.1-10.5-5.4c-0.9-1.3-2.3-1.9-3.8-2
		c-3.2-0.3-6.7,1.1-7,0c-0.4-1.6,11.1-5.6,11.1-5.6s-6.8-1.9-11.6-2.7c-4.3-0.7-8.1,1.3-8.8,1.8l-0.1,0.1l0.1-0.2
		c0.7-0.9,3.9-5.2,4.8-5.5l0.1,0c0.9-0.3,4.5-1.6,8-2.3c2.1-0.4,4.2-0.5,5.7,0.1c3.9,1.5,5-1.2,7.5-2.4c0.1,0,0.1-0.1,0.2-0.1
		c2.6-1.4,6.3-7.3,7-9.1c0.7-1.9,0.1-10.7,0.1-12.6c0-1.9-2-2.8-6.9,0.3c-4.9,3.1-8.8,0-8.8,0s5.6-1.1,7.2-1.3
		c1.6-0.1,3.9-2.6,3.9-3.9c0-1.3,1.8-1.7,4.2-2c2.4-0.3,1.7-4.3,1.7-4.3s4.1,1.5,5.2,3.2c1.1,1.6,4.8,0.8,7.2,0.3
		c2.4-0.4,9.2-5,9.4-7.6c0.2-2.5-0.2-3.7-4.4-3.8c-4.1-0.1,2.5-4.7,2.4-6.5c-0.1-1.7-6.1-0.4-6.5-0.3l0,0l0,0l0,0l-7.4-3.5l7.4,3.5
		c0,0,3.4-2.8,5.5-2.3c2.1,0.5,1.2-4,1.2-4l6.6,4.6c0,0,6.6-9.2,8.4-13c1.8-3.8,7.9-4.3,7.9-4.3s0.6-9.9,1.1-13.2
		c0.6-3.3,1.7-11.6,3.9-17.6c2.2-6,2.2-12.1,2.7-14.3c0.5-2.1-0.6-3.7,0.8-7.7l0.2-0.4C748.5,861.5,740.8,842.7,739.2,840.1z
		 M270.7,255.1C270.7,255,270.7,255,270.7,255.1c0,0,0.1,0.1,0.1,0.1C270.8,255.1,270.7,255.1,270.7,255.1z M596.9,1001.6
		L596.9,1001.6L596.9,1001.6L596.9,1001.6z"/>
	<path class="st0" d="M694.3,1002c-2.8-2.1-10-3.3-10-3.3c-0.8,0.4-2.9,4-0.5,5.8c2.3,1.8,5.1,4,7.6,1.9
		C693.9,1004.3,697.1,1004.1,694.3,1002z"/>
	<polygon class="st0" points="157,1182.3 158.8,1182.7 161.3,1182.4 158.9,1180.9 	"/>
	<polygon class="st0" points="161.7,1174.9 160.5,1172.7 159,1172.8 158.9,1175 159.8,1176.6 	"/>
	<polygon class="st0" points="162.7,1176.7 160.6,1179.6 163.4,1180.6 166.2,1179.2 163,1176.1 	"/>
	<polygon class="st0" points="165.7,1173.1 164.3,1170.6 162.8,1172.3 163.9,1174.5 	"/>
	<path class="st0" d="M539.5,1086.5c-3.8-2.3-3.8-3-5.8-1.1c-2,1.9-2.9,4.5-6.6,4.9c-3.7,0.4-6.3,3.5-6.3,3.5s3.7,0.3,7.3,1.5
		c3.7,1.2,7.4,5.4,10.2,5.6c2.8,0.2,3.9-1.3,5.5-3.1c1.6-1.8,2.5-2.4,2.8-6.2C547,1087.8,543.3,1088.8,539.5,1086.5z"/>
</g>
<g>
	<path class="st5" d="M548.6,220.3h-84V77.1h84V220.3z M465.6,219.3h82V78.1h-82V219.3z"/>
</g>
</svg>
